G04*
G04 #@! TF.GenerationSoftware,Altium Limited,Altium Designer,21.2.2 (38)*
G04*
G04 Layer_Physical_Order=1*
G04 Layer_Color=255*
%FSLAX25Y25*%
%MOIN*%
G70*
G04*
G04 #@! TF.SameCoordinates,CC4574EB-D44E-4940-9A72-5AA28DA6A015*
G04*
G04*
G04 #@! TF.FilePolarity,Positive*
G04*
G01*
G75*
%ADD12C,0.01000*%
%ADD36C,0.06299*%
%ADD55R,0.02441X0.02441*%
%ADD56R,0.03937X0.03543*%
%ADD57R,0.05512X0.05118*%
%ADD58R,0.10039X0.09646*%
%ADD59R,0.03740X0.03347*%
%ADD60R,0.03150X0.03150*%
%ADD61R,0.09646X0.08465*%
%ADD62R,0.05118X0.05512*%
G04:AMPARAMS|DCode=63|XSize=47.64mil|YSize=22.84mil|CornerRadius=2.85mil|HoleSize=0mil|Usage=FLASHONLY|Rotation=270.000|XOffset=0mil|YOffset=0mil|HoleType=Round|Shape=RoundedRectangle|*
%AMROUNDEDRECTD63*
21,1,0.04764,0.01713,0,0,270.0*
21,1,0.04193,0.02284,0,0,270.0*
1,1,0.00571,-0.00856,-0.02097*
1,1,0.00571,-0.00856,0.02097*
1,1,0.00571,0.00856,0.02097*
1,1,0.00571,0.00856,-0.02097*
%
%ADD63ROUNDEDRECTD63*%
%ADD64R,0.05315X0.04528*%
%ADD65R,0.05906X0.07874*%
%ADD66R,0.14961X0.07874*%
%ADD67R,0.03543X0.03937*%
%ADD68C,0.03150*%
%ADD69C,0.01181*%
%ADD70C,0.11811*%
%ADD71C,0.07087*%
%ADD72C,0.06299*%
%ADD73C,0.02362*%
%ADD74C,0.05512*%
%ADD75C,0.04724*%
%ADD76C,0.01575*%
%ADD77C,0.02756*%
%ADD78C,0.03937*%
%ADD79C,0.07874*%
%ADD80O,0.17717X0.21654*%
%ADD81C,0.06000*%
%ADD82R,0.06000X0.06000*%
%ADD83C,0.05906*%
%ADD84R,0.05906X0.05906*%
%ADD85O,0.07874X0.05906*%
%ADD86O,0.05906X0.07874*%
G04:AMPARAMS|DCode=87|XSize=62.99mil|YSize=62.99mil|CornerRadius=15.75mil|HoleSize=0mil|Usage=FLASHONLY|Rotation=180.000|XOffset=0mil|YOffset=0mil|HoleType=Round|Shape=RoundedRectangle|*
%AMROUNDEDRECTD87*
21,1,0.06299,0.03150,0,0,180.0*
21,1,0.03150,0.06299,0,0,180.0*
1,1,0.03150,-0.01575,0.01575*
1,1,0.03150,0.01575,0.01575*
1,1,0.03150,0.01575,-0.01575*
1,1,0.03150,-0.01575,-0.01575*
%
%ADD87ROUNDEDRECTD87*%
%ADD88O,0.13780X0.10630*%
%ADD89R,0.06500X0.06500*%
%ADD90C,0.06500*%
%ADD91C,0.06200*%
%ADD92C,0.05984*%
G04:AMPARAMS|DCode=93|XSize=59.84mil|YSize=59.84mil|CornerRadius=14.96mil|HoleSize=0mil|Usage=FLASHONLY|Rotation=0.000|XOffset=0mil|YOffset=0mil|HoleType=Round|Shape=RoundedRectangle|*
%AMROUNDEDRECTD93*
21,1,0.05984,0.02992,0,0,0.0*
21,1,0.02992,0.05984,0,0,0.0*
1,1,0.02992,0.01496,-0.01496*
1,1,0.02992,-0.01496,-0.01496*
1,1,0.02992,-0.01496,0.01496*
1,1,0.02992,0.01496,0.01496*
%
%ADD93ROUNDEDRECTD93*%
%ADD94C,0.11024*%
%ADD95R,0.11024X0.11024*%
G04:AMPARAMS|DCode=96|XSize=76.77mil|YSize=76.77mil|CornerRadius=19.19mil|HoleSize=0mil|Usage=FLASHONLY|Rotation=0.000|XOffset=0mil|YOffset=0mil|HoleType=Round|Shape=RoundedRectangle|*
%AMROUNDEDRECTD96*
21,1,0.07677,0.03839,0,0,0.0*
21,1,0.03839,0.07677,0,0,0.0*
1,1,0.03839,0.01919,-0.01919*
1,1,0.03839,-0.01919,-0.01919*
1,1,0.03839,-0.01919,0.01919*
1,1,0.03839,0.01919,0.01919*
%
%ADD96ROUNDEDRECTD96*%
%ADD97C,0.07677*%
%ADD98C,0.06496*%
%ADD99C,0.11811*%
%ADD100C,0.03937*%
%ADD101C,0.02362*%
%ADD102C,0.03150*%
G36*
X786417Y176772D02*
X754921D01*
Y204331D01*
X743110D01*
Y235827D01*
X786417D01*
Y176772D01*
D02*
G37*
G36*
X687992D02*
X656496D01*
Y204331D01*
X644685D01*
Y235827D01*
X687992D01*
Y176772D01*
D02*
G37*
G36*
X589567D02*
X558071D01*
Y204331D01*
X546260D01*
Y235827D01*
X589567D01*
Y176772D01*
D02*
G37*
G36*
X491142D02*
X459646D01*
Y204331D01*
X447835D01*
Y235827D01*
X491142D01*
Y176772D01*
D02*
G37*
G36*
X392717D02*
X361221D01*
Y204331D01*
X349410D01*
Y235827D01*
X392717D01*
Y176772D01*
D02*
G37*
G36*
X294291D02*
X262795D01*
Y204331D01*
X250984D01*
Y235827D01*
X294291D01*
Y176772D01*
D02*
G37*
G36*
X195866D02*
X164370D01*
Y204331D01*
X152559D01*
Y235827D01*
X195866D01*
Y176772D01*
D02*
G37*
G36*
X97441D02*
X65945D01*
Y204331D01*
X54134D01*
Y235827D01*
X97441D01*
Y176772D01*
D02*
G37*
G36*
X737205Y204331D02*
X715551D01*
Y157874D01*
X693898D01*
Y235827D01*
X737205D01*
Y204331D01*
D02*
G37*
G36*
X638779D02*
X617126D01*
Y157874D01*
X606091D01*
X606091Y157874D01*
X604539D01*
X604539Y157874D01*
X595472D01*
Y235827D01*
X638779D01*
Y204331D01*
D02*
G37*
G36*
X540354D02*
X518701D01*
Y157874D01*
X497047D01*
Y235827D01*
X540354D01*
Y204331D01*
D02*
G37*
G36*
X441929D02*
X420276D01*
Y157874D01*
X409240D01*
X409240Y157874D01*
X407689D01*
X407689Y157874D01*
X398622D01*
Y235827D01*
X441929D01*
Y204331D01*
D02*
G37*
G36*
X343504D02*
X321850D01*
Y157874D01*
X300197D01*
Y235827D01*
X343504D01*
Y204331D01*
D02*
G37*
G36*
X245079D02*
X223425D01*
Y157874D01*
X212390D01*
X212390Y157874D01*
X210839D01*
X210838Y157874D01*
X201772D01*
Y235827D01*
X245079D01*
Y204331D01*
D02*
G37*
G36*
X146653D02*
X125000D01*
Y157874D01*
X103347D01*
Y235827D01*
X146653D01*
Y204331D01*
D02*
G37*
G36*
X48228D02*
X26575D01*
Y159055D01*
X26378D01*
Y157874D01*
X15540D01*
X15539Y157874D01*
X13988D01*
X13988Y157874D01*
X4724D01*
Y235827D01*
X48228D01*
Y204331D01*
D02*
G37*
G36*
X687992Y143504D02*
X657677D01*
Y157283D01*
X647047D01*
Y143504D01*
X637598Y143504D01*
X637598Y161221D01*
X649803Y173425D01*
X687992D01*
Y143504D01*
D02*
G37*
G36*
X491142D02*
X460827D01*
Y157283D01*
X450197D01*
Y143504D01*
X440748Y143504D01*
X440748Y161221D01*
X452953Y173425D01*
X491142D01*
Y143504D01*
D02*
G37*
G36*
X294291D02*
X263976D01*
Y157283D01*
X253346D01*
Y143504D01*
X243898Y143504D01*
X243898Y161221D01*
X256102Y173425D01*
X294291D01*
Y143504D01*
D02*
G37*
G36*
X97441D02*
X67126D01*
Y157283D01*
X56496D01*
Y143504D01*
X47047Y143504D01*
X47047Y161221D01*
X59252Y173425D01*
X97441D01*
Y143504D01*
D02*
G37*
G36*
X646654Y173819D02*
X635630Y162795D01*
Y143504D01*
X621063Y143504D01*
Y200591D01*
X646654D01*
Y173819D01*
D02*
G37*
G36*
X449803D02*
X438779Y162795D01*
Y143504D01*
X424213Y143504D01*
Y200591D01*
X449803D01*
Y173819D01*
D02*
G37*
G36*
X252953D02*
X241929Y162795D01*
Y143504D01*
X227362Y143504D01*
Y200591D01*
X252953D01*
Y173819D01*
D02*
G37*
G36*
X56102D02*
X45079Y162795D01*
Y143504D01*
X30512Y143504D01*
Y200591D01*
X56102D01*
Y173819D01*
D02*
G37*
G36*
X786417Y143307D02*
X756102D01*
Y157087D01*
X745472D01*
Y143307D01*
X736024Y143307D01*
Y161024D01*
X748228Y173228D01*
X786417D01*
Y143307D01*
D02*
G37*
G36*
X589567D02*
X559252D01*
Y157087D01*
X548622D01*
Y143307D01*
X539173Y143307D01*
Y161024D01*
X551378Y173228D01*
X589567D01*
Y143307D01*
D02*
G37*
G36*
X392717D02*
X362402D01*
Y157087D01*
X351772D01*
Y143307D01*
X342323Y143307D01*
Y161024D01*
X354528Y173228D01*
X392717D01*
Y143307D01*
D02*
G37*
G36*
X195866D02*
X165551D01*
Y157087D01*
X154921D01*
Y143307D01*
X145472Y143307D01*
Y161024D01*
X157677Y173228D01*
X195866D01*
Y143307D01*
D02*
G37*
G36*
X745079Y173622D02*
X734055Y162598D01*
Y143307D01*
X719488Y143307D01*
Y200394D01*
X745079D01*
Y173622D01*
D02*
G37*
G36*
X548228D02*
X537205Y162598D01*
Y143307D01*
X522638Y143307D01*
Y200394D01*
X548228D01*
Y173622D01*
D02*
G37*
G36*
X351378D02*
X340354Y162598D01*
Y143307D01*
X325787Y143307D01*
Y200394D01*
X351378D01*
Y173622D01*
D02*
G37*
G36*
X154528D02*
X143504Y162598D01*
Y143307D01*
X128937Y143307D01*
Y200394D01*
X154528D01*
Y173622D01*
D02*
G37*
G36*
X751004Y118395D02*
X700365D01*
X697372Y121388D01*
X696591Y121910D01*
X695669Y122093D01*
X671260D01*
X670338Y121910D01*
X669557Y121388D01*
X666564Y118395D01*
X648449D01*
X503909D01*
X500916Y121388D01*
X500134Y121910D01*
X499213Y122093D01*
X475984D01*
X475063Y121910D01*
X474281Y121388D01*
X471288Y118395D01*
X306271Y118395D01*
X303278Y121388D01*
X302497Y121910D01*
X301575Y122093D01*
X276772D01*
X275850Y121910D01*
X275069Y121388D01*
X272075Y118395D01*
X76201D01*
X59666Y101859D01*
X59666Y82677D01*
Y81516D01*
X59135Y80823D01*
X58758Y79913D01*
X58629Y78937D01*
Y76968D01*
X58758Y75992D01*
X59135Y75082D01*
X59734Y74301D01*
X60515Y73702D01*
X61425Y73325D01*
X62402Y73196D01*
X63378Y73325D01*
X64288Y73702D01*
X65069Y74301D01*
X65371Y74694D01*
X174750Y74694D01*
X181075Y68369D01*
Y44110D01*
X179134D01*
X178827Y44049D01*
X178566Y43875D01*
X178392Y43614D01*
X178331Y43307D01*
X178331Y33858D01*
X178392Y33551D01*
X178566Y33291D01*
X178827Y33117D01*
X179134Y33055D01*
X180709D01*
Y31102D01*
X184252D01*
X187795D01*
Y33055D01*
X201166D01*
X201166Y22047D01*
X201227Y21740D01*
X201401Y21480D01*
X201661Y21305D01*
X201969Y21244D01*
X208661Y21244D01*
X208969Y21305D01*
X209229Y21479D01*
X209403Y21740D01*
X209464Y22047D01*
X209464Y34236D01*
X218898Y34236D01*
X219205Y34298D01*
X219465Y34472D01*
X219639Y34732D01*
X219701Y35039D01*
X219701Y43307D01*
X219639Y43614D01*
X219465Y43875D01*
X219205Y44049D01*
X218898Y44110D01*
X187429Y44110D01*
Y68792D01*
X224567Y68878D01*
X250406Y68938D01*
X250760Y68585D01*
Y60276D01*
X249016D01*
Y58268D01*
Y56260D01*
X250760D01*
Y52843D01*
X250535Y52693D01*
X250298Y52338D01*
X250215Y51919D01*
Y47726D01*
X250298Y47308D01*
X250535Y46953D01*
X250890Y46716D01*
X251309Y46633D01*
X253022D01*
X253440Y46716D01*
X253743Y46918D01*
X253795Y46953D01*
X254276Y46953D01*
X254328Y46918D01*
X254631Y46716D01*
X255049Y46633D01*
X255512D01*
Y49823D01*
Y53013D01*
X255049D01*
X254631Y52930D01*
X254328Y52727D01*
X254276Y52693D01*
X253795Y52693D01*
X253743Y52727D01*
X253570Y52843D01*
Y56260D01*
X254173D01*
Y60276D01*
X253570D01*
Y68945D01*
X257887Y68955D01*
X258241Y68602D01*
Y60276D01*
X257638D01*
Y56260D01*
X258241D01*
Y53100D01*
X257803Y52693D01*
X257535D01*
X257483Y52727D01*
X257180Y52930D01*
X256762Y53013D01*
X256299D01*
Y49823D01*
Y46633D01*
X256762D01*
X257180Y46716D01*
X257483Y46918D01*
X257535Y46953D01*
X258016Y46953D01*
X258068Y46918D01*
X258371Y46716D01*
X258789Y46633D01*
X260502D01*
X260921Y46716D01*
X261276Y46953D01*
X261513Y47308D01*
X261596Y47726D01*
Y51919D01*
X261513Y52338D01*
X261276Y52693D01*
X261051Y52843D01*
Y56260D01*
X262795D01*
Y58268D01*
Y60276D01*
X261051D01*
Y68963D01*
X263646Y68969D01*
X275603Y68996D01*
X275957Y68643D01*
Y60276D01*
X274213D01*
Y58268D01*
Y56260D01*
X275957D01*
Y52843D01*
X275732Y52693D01*
X275495Y52338D01*
X275412Y51919D01*
Y47726D01*
X275495Y47308D01*
X275732Y46953D01*
X276087Y46716D01*
X276506Y46632D01*
X278219D01*
X278637Y46716D01*
X278940Y46918D01*
X278992Y46953D01*
X279473Y46953D01*
X279524Y46918D01*
X279827Y46716D01*
X280246Y46632D01*
X280709D01*
Y49823D01*
Y53013D01*
X280246D01*
X279827Y52930D01*
X279524Y52727D01*
X279473Y52693D01*
X279310D01*
X278908Y52748D01*
X278767Y52843D01*
Y56260D01*
X279370D01*
Y60276D01*
X278767D01*
Y69004D01*
X283084Y69014D01*
X283438Y68661D01*
Y60276D01*
X282835D01*
Y56260D01*
X283438D01*
Y53100D01*
X283000Y52693D01*
X282732D01*
X282680Y52727D01*
X282377Y52930D01*
X281959Y53013D01*
X281496D01*
Y49823D01*
Y46632D01*
X281959D01*
X282377Y46716D01*
X282680Y46918D01*
X282732Y46953D01*
X283213Y46953D01*
X283265Y46918D01*
X283568Y46716D01*
X283986Y46632D01*
X285699D01*
X286118Y46716D01*
X286472Y46953D01*
X286709Y47308D01*
X286793Y47726D01*
Y51919D01*
X286709Y52338D01*
X286472Y52693D01*
X286247Y52843D01*
Y56260D01*
X287992D01*
Y58268D01*
Y60276D01*
X286247D01*
Y69021D01*
X415990Y69322D01*
X416025Y69147D01*
X416329Y68692D01*
X418298Y66723D01*
X418754Y66418D01*
X419291Y66312D01*
X476583D01*
X485012Y57883D01*
Y56732D01*
X483268D01*
Y54724D01*
Y52716D01*
X485012D01*
Y48906D01*
X484788Y48756D01*
X484551Y48401D01*
X484467Y47982D01*
Y43789D01*
X484551Y43371D01*
X484788Y43016D01*
X485143Y42779D01*
X485561Y42695D01*
X487274D01*
X487692Y42779D01*
X487995Y42981D01*
X488047Y43016D01*
X488528Y43016D01*
X488580Y42981D01*
X488882Y42779D01*
X489301Y42695D01*
X489764D01*
Y45886D01*
Y49076D01*
X489301D01*
X488882Y48993D01*
X488580Y48790D01*
X488528Y48756D01*
X488368D01*
X487964Y48812D01*
X487822Y48906D01*
Y52716D01*
X488425D01*
Y56732D01*
X487822D01*
Y58465D01*
X487715Y59002D01*
X487411Y59458D01*
X478159Y68710D01*
X477776Y68965D01*
X477793Y69275D01*
X477859Y69466D01*
X492139Y69499D01*
X492493Y69146D01*
Y56732D01*
X491890D01*
Y52716D01*
X492493D01*
Y49163D01*
X492055Y48756D01*
X491787D01*
X491735Y48790D01*
X491432Y48993D01*
X491014Y49076D01*
X490551D01*
Y45886D01*
Y42695D01*
X491014D01*
X491432Y42779D01*
X491735Y42981D01*
X491787Y43016D01*
X492268Y43016D01*
X492320Y42981D01*
X492623Y42779D01*
X493041Y42695D01*
X494754D01*
X495173Y42779D01*
X495527Y43016D01*
X495764Y43371D01*
X495848Y43789D01*
Y47982D01*
X495764Y48401D01*
X495527Y48756D01*
X495303Y48906D01*
Y52716D01*
X497047D01*
Y54724D01*
Y56732D01*
X495303D01*
Y69506D01*
X514236Y69550D01*
X514503Y69226D01*
X514540Y69051D01*
Y56732D01*
X512795D01*
Y54724D01*
Y52716D01*
X514540D01*
Y48906D01*
X514315Y48756D01*
X514078Y48401D01*
X513995Y47982D01*
Y43789D01*
X514078Y43371D01*
X514315Y43016D01*
X514670Y42779D01*
X515089Y42695D01*
X516801D01*
X517220Y42779D01*
X517523Y42981D01*
X517575Y43016D01*
X518055Y43016D01*
X518107Y42981D01*
X518410Y42779D01*
X518829Y42695D01*
X519291D01*
Y45886D01*
Y49076D01*
X518829D01*
X518410Y48993D01*
X518107Y48790D01*
X518055Y48756D01*
X517893D01*
X517491Y48811D01*
X517350Y48906D01*
Y52716D01*
X517953D01*
Y56732D01*
X517350D01*
Y68512D01*
X518397Y69560D01*
X521720Y69567D01*
X522000Y69227D01*
X522020Y69068D01*
Y56732D01*
X521417D01*
Y52716D01*
X522020D01*
Y49163D01*
X521583Y48756D01*
X521315D01*
X521263Y48790D01*
X520960Y48993D01*
X520541Y49076D01*
X520079D01*
Y45886D01*
Y42695D01*
X520541D01*
X520960Y42779D01*
X521263Y42981D01*
X521315Y43016D01*
X521796Y43016D01*
X521847Y42981D01*
X522150Y42779D01*
X522569Y42695D01*
X524282D01*
X524700Y42779D01*
X525055Y43016D01*
X525292Y43371D01*
X525376Y43789D01*
Y47982D01*
X525292Y48401D01*
X525055Y48756D01*
X524830Y48906D01*
Y52716D01*
X526575D01*
Y54724D01*
Y56732D01*
X524830D01*
Y68512D01*
X530503Y74186D01*
X563396D01*
X568668Y69568D01*
X569508Y68833D01*
X569684Y2716D01*
X569331Y2362D01*
X333403D01*
X333196Y2862D01*
X340934Y10600D01*
X340982Y10573D01*
X341944Y10315D01*
X342939D01*
X343900Y10573D01*
X344762Y11070D01*
X345465Y11774D01*
X345963Y12636D01*
X346221Y13597D01*
Y14592D01*
X345963Y15553D01*
X345465Y16415D01*
X344762Y17119D01*
X343900Y17616D01*
X342939Y17874D01*
X341944D01*
X340982Y17616D01*
X340120Y17119D01*
X339417Y16415D01*
X338919Y15553D01*
X338662Y14592D01*
Y13597D01*
X338919Y12636D01*
X338947Y12587D01*
X331308Y4948D01*
X316250D01*
X316058Y5410D01*
X321170Y10522D01*
X321943Y10315D01*
X322939D01*
X323900Y10573D01*
X324762Y11070D01*
X325465Y11774D01*
X325963Y12636D01*
X326221Y13597D01*
Y14592D01*
X325963Y15553D01*
X325465Y16415D01*
X324762Y17119D01*
X323900Y17616D01*
X322939Y17874D01*
X321943D01*
X320982Y17616D01*
X320120Y17119D01*
X319417Y16415D01*
X318919Y15553D01*
X318662Y14592D01*
Y13597D01*
X318919Y12636D01*
X319062Y12388D01*
X313985Y7310D01*
X162393D01*
X158885Y10818D01*
Y58473D01*
X161409Y60997D01*
X164014D01*
X164030Y60940D01*
X164528Y60076D01*
X165233Y59371D01*
X166097Y58872D01*
X167060Y58614D01*
X168058D01*
X169021Y58872D01*
X169885Y59371D01*
X170590Y60076D01*
X171088Y60940D01*
X171346Y61903D01*
Y62900D01*
X171088Y63863D01*
X170590Y64727D01*
X169885Y65432D01*
X169021Y65931D01*
X168058Y66189D01*
X167060D01*
X166097Y65931D01*
X165233Y65432D01*
X164528Y64727D01*
X164030Y63863D01*
X164014Y63806D01*
X160827D01*
X160289Y63700D01*
X159833Y63395D01*
X156487Y60049D01*
X156182Y59593D01*
X156075Y59055D01*
Y10236D01*
X156182Y9699D01*
X156487Y9243D01*
X160319Y5410D01*
X160128Y4948D01*
X149795D01*
X111348Y43395D01*
X110892Y43699D01*
X110354Y43806D01*
X91104D01*
X91088Y43863D01*
X90590Y44727D01*
X89885Y45432D01*
X89021Y45931D01*
X88058Y46189D01*
X87060D01*
X86097Y45931D01*
X85233Y45432D01*
X84528Y44727D01*
X84030Y43863D01*
X83772Y42900D01*
Y41903D01*
X84030Y40940D01*
X84528Y40076D01*
X85233Y39371D01*
X86097Y38872D01*
X87060Y38614D01*
X88058D01*
X89021Y38872D01*
X89885Y39371D01*
X90590Y40076D01*
X91088Y40940D01*
X91104Y40997D01*
X109773D01*
X147907Y2862D01*
X147700Y2362D01*
X22047D01*
Y82677D01*
X4724D01*
Y140551D01*
X751004D01*
Y118395D01*
D02*
G37*
G36*
X218898Y35039D02*
X208661Y35039D01*
X208661Y22047D01*
X201969Y22047D01*
X201969Y33858D01*
X187795D01*
Y34055D01*
X180709D01*
Y33858D01*
X179134D01*
X179134Y43307D01*
X218898Y43307D01*
X218898Y35039D01*
D02*
G37*
%LPC*%
G36*
X642311Y136417D02*
X640760D01*
X639239Y136115D01*
X637806Y135521D01*
X636516Y134659D01*
X635419Y133563D01*
X634558Y132273D01*
X633964Y130840D01*
X633661Y129319D01*
Y127768D01*
X633964Y126247D01*
X634558Y124813D01*
X635419Y123524D01*
X636516Y122427D01*
X637806Y121565D01*
X639239Y120972D01*
X640760Y120669D01*
X642311D01*
X643832Y120972D01*
X645265Y121565D01*
X646555Y122427D01*
X647652Y123524D01*
X648513Y124813D01*
X649107Y126247D01*
X649409Y127768D01*
Y129319D01*
X649107Y130840D01*
X648513Y132273D01*
X647652Y133563D01*
X646555Y134659D01*
X645265Y135521D01*
X643832Y136115D01*
X642311Y136417D01*
D02*
G37*
G36*
X445461D02*
X443910D01*
X442388Y136115D01*
X440955Y135521D01*
X439666Y134659D01*
X438569Y133563D01*
X437707Y132273D01*
X437114Y130840D01*
X436811Y129319D01*
Y127768D01*
X437114Y126247D01*
X437707Y124813D01*
X438569Y123524D01*
X439666Y122427D01*
X440955Y121565D01*
X442388Y120972D01*
X443910Y120669D01*
X445461D01*
X446982Y120972D01*
X448415Y121565D01*
X449704Y122427D01*
X450801Y123524D01*
X451663Y124813D01*
X452256Y126247D01*
X452559Y127768D01*
Y129319D01*
X452256Y130840D01*
X451663Y132273D01*
X450801Y133563D01*
X449704Y134659D01*
X448415Y135521D01*
X446982Y136115D01*
X445461Y136417D01*
D02*
G37*
G36*
X248610D02*
X247059D01*
X245538Y136115D01*
X244105Y135521D01*
X242815Y134659D01*
X241719Y133563D01*
X240857Y132273D01*
X240263Y130840D01*
X239961Y129319D01*
Y127768D01*
X240263Y126247D01*
X240857Y124813D01*
X241719Y123524D01*
X242815Y122427D01*
X244105Y121565D01*
X245538Y120972D01*
X247059Y120669D01*
X248610D01*
X250131Y120972D01*
X251564Y121565D01*
X252854Y122427D01*
X253951Y123524D01*
X254813Y124813D01*
X255406Y126247D01*
X255709Y127768D01*
Y129319D01*
X255406Y130840D01*
X254813Y132273D01*
X253951Y133563D01*
X252854Y134659D01*
X251564Y135521D01*
X250131Y136115D01*
X248610Y136417D01*
D02*
G37*
G36*
X740736Y136221D02*
X739185D01*
X737664Y135918D01*
X736231Y135324D01*
X734941Y134463D01*
X733845Y133366D01*
X732983Y132076D01*
X732389Y130643D01*
X732087Y129122D01*
Y127571D01*
X732389Y126050D01*
X732983Y124617D01*
X733845Y123327D01*
X734941Y122230D01*
X736231Y121369D01*
X737664Y120775D01*
X739185Y120473D01*
X740736D01*
X742257Y120775D01*
X743690Y121369D01*
X744980Y122230D01*
X746077Y123327D01*
X746939Y124617D01*
X747532Y126050D01*
X747835Y127571D01*
Y129122D01*
X747532Y130643D01*
X746939Y132076D01*
X746077Y133366D01*
X744980Y134463D01*
X743690Y135324D01*
X742257Y135918D01*
X740736Y136221D01*
D02*
G37*
G36*
X543886D02*
X542335D01*
X540813Y135918D01*
X539381Y135324D01*
X538091Y134463D01*
X536994Y133366D01*
X536132Y132076D01*
X535539Y130643D01*
X535236Y129122D01*
Y127571D01*
X535539Y126050D01*
X536132Y124617D01*
X536994Y123327D01*
X538091Y122230D01*
X539381Y121369D01*
X540813Y120775D01*
X542335Y120473D01*
X543886D01*
X545407Y120775D01*
X546840Y121369D01*
X548130Y122230D01*
X549226Y123327D01*
X550088Y124617D01*
X550682Y126050D01*
X550984Y127571D01*
Y129122D01*
X550682Y130643D01*
X550088Y132076D01*
X549226Y133366D01*
X548130Y134463D01*
X546840Y135324D01*
X545407Y135918D01*
X543886Y136221D01*
D02*
G37*
G36*
X347035D02*
X345484D01*
X343963Y135918D01*
X342530Y135324D01*
X341241Y134463D01*
X340144Y133366D01*
X339282Y132076D01*
X338688Y130643D01*
X338386Y129122D01*
Y127571D01*
X338688Y126050D01*
X339282Y124617D01*
X340144Y123327D01*
X341241Y122230D01*
X342530Y121369D01*
X343963Y120775D01*
X345484Y120473D01*
X347035D01*
X348557Y120775D01*
X349990Y121369D01*
X351279Y122230D01*
X352376Y123327D01*
X353238Y124617D01*
X353831Y126050D01*
X354134Y127571D01*
Y129122D01*
X353831Y130643D01*
X353238Y132076D01*
X352376Y133366D01*
X351279Y134463D01*
X349990Y135324D01*
X348557Y135918D01*
X347035Y136221D01*
D02*
G37*
G36*
X150185D02*
X148634D01*
X147113Y135918D01*
X145680Y135324D01*
X144390Y134463D01*
X143293Y133366D01*
X142432Y132076D01*
X141838Y130643D01*
X141535Y129122D01*
Y127571D01*
X141838Y126050D01*
X142432Y124617D01*
X143293Y123327D01*
X144390Y122230D01*
X145680Y121369D01*
X147113Y120775D01*
X148634Y120473D01*
X150185D01*
X151706Y120775D01*
X153139Y121369D01*
X154429Y122230D01*
X155526Y123327D01*
X156387Y124617D01*
X156981Y126050D01*
X157283Y127571D01*
Y129122D01*
X156981Y130643D01*
X156387Y132076D01*
X155526Y133366D01*
X154429Y134463D01*
X153139Y135324D01*
X151706Y135918D01*
X150185Y136221D01*
D02*
G37*
G36*
X51760D02*
X50209D01*
X48687Y135918D01*
X47254Y135324D01*
X45965Y134463D01*
X44868Y133366D01*
X44006Y132076D01*
X43413Y130643D01*
X43110Y129122D01*
Y127571D01*
X43413Y126050D01*
X44006Y124617D01*
X44868Y123327D01*
X45965Y122230D01*
X47254Y121369D01*
X48687Y120775D01*
X50209Y120473D01*
X51760D01*
X53281Y120775D01*
X54714Y121369D01*
X56004Y122230D01*
X57100Y123327D01*
X57962Y124617D01*
X58556Y126050D01*
X58858Y127571D01*
Y129122D01*
X58556Y130643D01*
X57962Y132076D01*
X57100Y133366D01*
X56004Y134463D01*
X54714Y135324D01*
X53281Y135918D01*
X51760Y136221D01*
D02*
G37*
G36*
X273425Y60276D02*
X271811D01*
Y58661D01*
X273425D01*
Y60276D01*
D02*
G37*
G36*
X248228D02*
X246614D01*
Y58661D01*
X248228D01*
Y60276D01*
D02*
G37*
G36*
X290394D02*
X288779D01*
Y58661D01*
X290394D01*
Y60276D01*
D02*
G37*
G36*
X265197D02*
X263583D01*
Y58661D01*
X265197D01*
Y60276D01*
D02*
G37*
G36*
X88058Y66189D02*
X87060D01*
X86097Y65931D01*
X85233Y65432D01*
X84528Y64727D01*
X84030Y63863D01*
X83772Y62900D01*
Y61903D01*
X84030Y60940D01*
X84528Y60076D01*
X85233Y59371D01*
X86097Y58872D01*
X87060Y58614D01*
X88058D01*
X89021Y58872D01*
X89885Y59371D01*
X90590Y60076D01*
X91088Y60940D01*
X91346Y61903D01*
Y62900D01*
X91088Y63863D01*
X90590Y64727D01*
X89885Y65432D01*
X89021Y65931D01*
X88058Y66189D01*
D02*
G37*
G36*
X290394Y57874D02*
X288779D01*
Y56260D01*
X290394D01*
Y57874D01*
D02*
G37*
G36*
X273425Y57874D02*
X271811D01*
Y56260D01*
X273425D01*
Y57874D01*
D02*
G37*
G36*
X265197Y57874D02*
X263583D01*
Y56260D01*
X265197D01*
Y57874D01*
D02*
G37*
G36*
X248228Y57874D02*
X246614D01*
Y56260D01*
X248228D01*
Y57874D01*
D02*
G37*
G36*
X512008Y56732D02*
X510394D01*
Y55118D01*
X512008D01*
Y56732D01*
D02*
G37*
G36*
X499449D02*
X497835D01*
Y55118D01*
X499449D01*
Y56732D01*
D02*
G37*
G36*
X528976D02*
X527362D01*
Y55118D01*
X528976D01*
Y56732D01*
D02*
G37*
G36*
X482480D02*
X480866D01*
Y55118D01*
X482480D01*
Y56732D01*
D02*
G37*
G36*
X528976Y54331D02*
X527362D01*
Y52716D01*
X528976D01*
Y54331D01*
D02*
G37*
G36*
X512008Y54331D02*
X510394D01*
Y52716D01*
X512008D01*
Y54331D01*
D02*
G37*
G36*
X499449D02*
X497835D01*
Y52716D01*
X499449D01*
Y54331D01*
D02*
G37*
G36*
X482480Y54331D02*
X480866D01*
Y52716D01*
X482480D01*
Y54331D01*
D02*
G37*
G36*
X272835Y52067D02*
X270473D01*
Y49902D01*
X272835D01*
Y52067D01*
D02*
G37*
G36*
X269685D02*
X267323D01*
Y49902D01*
X269685D01*
Y52067D01*
D02*
G37*
G36*
X247638Y51673D02*
X245276D01*
Y49508D01*
X247638D01*
Y51673D01*
D02*
G37*
G36*
X244488D02*
X242126D01*
Y49508D01*
X244488D01*
Y51673D01*
D02*
G37*
G36*
X168058Y56189D02*
X167060D01*
X166097Y55931D01*
X165233Y55432D01*
X164528Y54727D01*
X164030Y53863D01*
X163772Y52900D01*
Y51903D01*
X164030Y50940D01*
X164528Y50076D01*
X165233Y49371D01*
X166097Y48872D01*
X167060Y48614D01*
X168058D01*
X169021Y48872D01*
X169885Y49371D01*
X170590Y50076D01*
X171088Y50940D01*
X171346Y51903D01*
Y52900D01*
X171088Y53863D01*
X170590Y54727D01*
X169885Y55432D01*
X169021Y55931D01*
X168058Y56189D01*
D02*
G37*
G36*
X88058D02*
X87060D01*
X86097Y55931D01*
X85233Y55432D01*
X84528Y54727D01*
X84030Y53863D01*
X83772Y52900D01*
Y51903D01*
X84030Y50940D01*
X84528Y50076D01*
X85233Y49371D01*
X86097Y48872D01*
X87060Y48614D01*
X88058D01*
X89021Y48872D01*
X89885Y49371D01*
X90590Y50076D01*
X91088Y50940D01*
X91346Y51903D01*
Y52900D01*
X91088Y53863D01*
X90590Y54727D01*
X89885Y55432D01*
X89021Y55931D01*
X88058Y56189D01*
D02*
G37*
G36*
X326280Y50984D02*
X323228D01*
Y48327D01*
X326280D01*
Y50984D01*
D02*
G37*
G36*
X322441D02*
X319390D01*
Y48327D01*
X322441D01*
Y50984D01*
D02*
G37*
G36*
X335433Y49311D02*
X333071D01*
Y47146D01*
X335433D01*
Y49311D01*
D02*
G37*
G36*
X332283D02*
X329921D01*
Y47146D01*
X332283D01*
Y49311D01*
D02*
G37*
G36*
X510630Y48130D02*
X508268D01*
Y45965D01*
X510630D01*
Y48130D01*
D02*
G37*
G36*
X507480D02*
X505118D01*
Y45965D01*
X507480D01*
Y48130D01*
D02*
G37*
G36*
X481102D02*
X478740D01*
Y45965D01*
X481102D01*
Y48130D01*
D02*
G37*
G36*
X477953D02*
X475591D01*
Y45965D01*
X477953D01*
Y48130D01*
D02*
G37*
G36*
X326280Y47539D02*
X323228D01*
Y44882D01*
X326280D01*
Y47539D01*
D02*
G37*
G36*
X322441D02*
X319390D01*
Y44882D01*
X322441D01*
Y47539D01*
D02*
G37*
G36*
X510630Y45177D02*
X505118D01*
Y43315D01*
X505118Y43012D01*
X505118Y42512D01*
Y41862D01*
X502624D01*
X502624Y41862D01*
X502010Y41739D01*
X501489Y41391D01*
X501489Y41391D01*
X501486Y41388D01*
X501183D01*
X500460Y41088D01*
X499906Y40534D01*
X499606Y39811D01*
Y39028D01*
X499906Y38304D01*
X500460Y37751D01*
X501183Y37451D01*
X501966D01*
X502690Y37751D01*
X503244Y38304D01*
X503387Y38650D01*
X505118D01*
Y37697D01*
X510630D01*
Y39146D01*
X513896D01*
X514163Y38646D01*
X514078Y38519D01*
X513995Y38100D01*
Y33907D01*
X514078Y33489D01*
X514315Y33134D01*
X514342Y32864D01*
X510835Y29358D01*
X423425D01*
X422888Y29251D01*
X422432Y28946D01*
X421740Y28254D01*
X421435Y27799D01*
X421328Y27261D01*
Y26772D01*
X419980D01*
Y21260D01*
X421036D01*
Y17631D01*
X420982Y17616D01*
X420120Y17119D01*
X419417Y16415D01*
X418919Y15553D01*
X418662Y14592D01*
Y13597D01*
X418919Y12636D01*
X419417Y11774D01*
X420120Y11070D01*
X420982Y10573D01*
X421944Y10315D01*
X422939D01*
X423900Y10573D01*
X424762Y11070D01*
X425465Y11774D01*
X425963Y12636D01*
X426221Y13597D01*
Y14592D01*
X425963Y15553D01*
X425465Y16415D01*
X424762Y17119D01*
X423900Y17616D01*
X423846Y17631D01*
Y21260D01*
X425098D01*
Y21260D01*
X425295D01*
Y21260D01*
X427461D01*
Y24016D01*
X427854D01*
Y24409D01*
X430413D01*
Y26548D01*
X511417D01*
X511955Y26655D01*
X512411Y26959D01*
X516938Y31487D01*
X517243Y31943D01*
X517350Y32480D01*
Y32984D01*
X517491Y33078D01*
X517893Y33134D01*
X518055Y33134D01*
X518107Y33099D01*
X518410Y32897D01*
X518829Y32814D01*
X520541D01*
X520960Y32897D01*
X521263Y33099D01*
X521315Y33134D01*
X521796Y33134D01*
X521847Y33099D01*
X522150Y32897D01*
X522569Y32814D01*
X524282D01*
X524700Y32897D01*
X524807Y32968D01*
X526452D01*
X526841Y32580D01*
X527564Y32280D01*
X528348D01*
X529071Y32580D01*
X529625Y33134D01*
X529925Y33857D01*
Y34640D01*
X529625Y35364D01*
X529071Y35917D01*
X528348Y36217D01*
X527564D01*
X526841Y35917D01*
X526702Y35778D01*
X525376D01*
Y38100D01*
X525292Y38519D01*
X525055Y38874D01*
X524700Y39111D01*
X524282Y39194D01*
X522569D01*
X522150Y39111D01*
X521847Y38908D01*
X521796Y38874D01*
X521633D01*
X521231Y38930D01*
X521090Y39024D01*
Y39859D01*
X520983Y40397D01*
X520679Y40853D01*
X519987Y41545D01*
X519531Y41849D01*
X518993Y41956D01*
X510983D01*
X510630Y42310D01*
X510630Y42815D01*
X510630Y43315D01*
Y45177D01*
D02*
G37*
G36*
X168058Y46189D02*
X167060D01*
X166097Y45931D01*
X165233Y45432D01*
X164528Y44727D01*
X164030Y43863D01*
X163772Y42900D01*
Y41903D01*
X164030Y40940D01*
X164528Y40076D01*
X165233Y39371D01*
X166097Y38872D01*
X167060Y38614D01*
X168058D01*
X169021Y38872D01*
X169885Y39371D01*
X170590Y40076D01*
X171088Y40940D01*
X171346Y41903D01*
Y42900D01*
X171088Y43863D01*
X170590Y44727D01*
X169885Y45432D01*
X169021Y45931D01*
X168058Y46189D01*
D02*
G37*
G36*
X88058Y36189D02*
X87060D01*
X86097Y35931D01*
X85233Y35432D01*
X84528Y34727D01*
X84310Y34350D01*
X77165D01*
Y35630D01*
X70079D01*
Y34241D01*
X66142D01*
Y34744D01*
X60630D01*
Y29929D01*
X60630Y29626D01*
X60630Y29126D01*
Y27264D01*
X66142D01*
Y29126D01*
X66142Y29429D01*
X66142Y29874D01*
X66495Y30227D01*
X70079D01*
Y28937D01*
Y26378D01*
X73622D01*
X77165D01*
Y28937D01*
Y30335D01*
X84378D01*
X84528Y30076D01*
X85233Y29371D01*
X86097Y28872D01*
X87060Y28614D01*
X88058D01*
X89021Y28872D01*
X89885Y29371D01*
X90590Y30076D01*
X91088Y30940D01*
X91346Y31903D01*
Y32900D01*
X91088Y33863D01*
X90590Y34727D01*
X89885Y35432D01*
X89021Y35931D01*
X88058Y36189D01*
D02*
G37*
G36*
X481102Y45177D02*
X475591D01*
Y43315D01*
X475591Y43012D01*
X475591Y42512D01*
Y41862D01*
X473934D01*
X473319Y41739D01*
X472798Y41391D01*
X472798Y41391D01*
X472746Y41339D01*
X472443D01*
X471720Y41039D01*
X471166Y40485D01*
X470866Y39762D01*
Y38978D01*
X471166Y38255D01*
X471720Y37701D01*
X472443Y37402D01*
X473226D01*
X473950Y37701D01*
X474504Y38255D01*
X474667Y38650D01*
X475591D01*
Y37697D01*
X481102D01*
Y38752D01*
X484151D01*
X484497Y38252D01*
X484467Y38100D01*
Y33907D01*
X484551Y33489D01*
X484609Y33401D01*
X484342Y32901D01*
X420472D01*
X419935Y32794D01*
X419479Y32489D01*
X415816Y28827D01*
X415354Y29018D01*
Y29035D01*
X409843D01*
Y26870D01*
X409843Y26870D01*
Y26673D01*
X409843D01*
X409843Y26370D01*
Y21555D01*
X411036D01*
Y17631D01*
X410982Y17616D01*
X410120Y17119D01*
X409417Y16415D01*
X408919Y15553D01*
X408662Y14592D01*
Y13597D01*
X408919Y12636D01*
X409417Y11774D01*
X410120Y11070D01*
X410982Y10573D01*
X411943Y10315D01*
X412939D01*
X413900Y10573D01*
X414762Y11070D01*
X415465Y11774D01*
X415963Y12636D01*
X416221Y13597D01*
Y14592D01*
X415963Y15553D01*
X415465Y16415D01*
X414762Y17119D01*
X413900Y17616D01*
X413846Y17631D01*
Y21555D01*
X415354D01*
Y24391D01*
X421054Y30091D01*
X485725D01*
X486263Y30198D01*
X486719Y30503D01*
X487411Y31194D01*
X487715Y31650D01*
X487822Y32188D01*
Y32984D01*
X487964Y33078D01*
X488368Y33134D01*
X488528Y33134D01*
X488580Y33099D01*
X488882Y32897D01*
X489301Y32814D01*
X491014D01*
X491432Y32897D01*
X491735Y33099D01*
X491787Y33134D01*
X492268Y33134D01*
X492320Y33099D01*
X492623Y32897D01*
X493041Y32814D01*
X494754D01*
X495173Y32897D01*
X495282Y32970D01*
X497711D01*
X498098Y32583D01*
X498821Y32283D01*
X499604D01*
X500328Y32583D01*
X500881Y33137D01*
X501181Y33860D01*
Y34644D01*
X500881Y35367D01*
X500328Y35921D01*
X499604Y36220D01*
X498821D01*
X498098Y35921D01*
X497957Y35780D01*
X495848D01*
Y38100D01*
X495764Y38519D01*
X495527Y38874D01*
X495173Y39111D01*
X494754Y39194D01*
X493041D01*
X492623Y39111D01*
X492320Y38908D01*
X492268Y38874D01*
X491787Y38874D01*
X491735Y38908D01*
X491498Y39067D01*
Y39439D01*
X491391Y39977D01*
X491087Y40433D01*
X490369Y41151D01*
X489913Y41456D01*
X489375Y41562D01*
X481456D01*
X481102Y41916D01*
X481102Y42815D01*
X481102Y43315D01*
Y45177D01*
D02*
G37*
G36*
X405118Y31988D02*
X402756D01*
Y29823D01*
X405118D01*
Y31988D01*
D02*
G37*
G36*
X401968D02*
X399606D01*
Y29823D01*
X401968D01*
Y31988D01*
D02*
G37*
G36*
X415354Y31988D02*
X412992D01*
Y29823D01*
X415354D01*
Y31988D01*
D02*
G37*
G36*
X412205D02*
X409843D01*
Y29823D01*
X412205D01*
Y31988D01*
D02*
G37*
G36*
X272835Y49114D02*
X267323D01*
Y47252D01*
X267323Y46949D01*
X267323Y46449D01*
Y41634D01*
X268473D01*
Y40548D01*
X268410Y40485D01*
X268110Y39762D01*
Y38978D01*
X268410Y38255D01*
X268964Y37701D01*
X269687Y37402D01*
X270470D01*
X271194Y37701D01*
X271748Y38255D01*
X272047Y38978D01*
Y39762D01*
X271748Y40485D01*
X271684Y40548D01*
Y41634D01*
X272835D01*
Y42689D01*
X275096D01*
X275442Y42189D01*
X275412Y42037D01*
Y37844D01*
X275495Y37426D01*
X275732Y37071D01*
X275957Y36921D01*
Y34843D01*
X276064Y34305D01*
X276369Y33849D01*
X279966Y30251D01*
X279793Y29821D01*
X279303Y29771D01*
X276732Y32342D01*
X276276Y32646D01*
X275738Y32753D01*
X261987D01*
X261653Y33253D01*
X261762Y33516D01*
Y34299D01*
X261462Y35023D01*
X261124Y35360D01*
Y36970D01*
X261276Y37071D01*
X261513Y37426D01*
X261596Y37844D01*
Y42037D01*
X261513Y42456D01*
X261276Y42811D01*
X260921Y43048D01*
X260502Y43131D01*
X258789D01*
X258371Y43048D01*
X258068Y42845D01*
X258016Y42811D01*
X257854D01*
X257452Y42867D01*
X257254Y42999D01*
Y43403D01*
X257147Y43940D01*
X256843Y44396D01*
X256151Y45088D01*
X255695Y45393D01*
X255157Y45499D01*
X247991D01*
X247638Y45853D01*
X247638Y46358D01*
X247638Y46858D01*
Y48720D01*
X242126D01*
Y46858D01*
X242126Y46555D01*
X242126Y46055D01*
Y41240D01*
X243276D01*
Y40548D01*
X243213Y40485D01*
X242913Y39762D01*
Y38978D01*
X243213Y38255D01*
X243767Y37701D01*
X244490Y37402D01*
X245273D01*
X245997Y37701D01*
X246551Y38255D01*
X246850Y38978D01*
Y39762D01*
X246551Y40485D01*
X246487Y40548D01*
Y41240D01*
X247638D01*
Y42689D01*
X249899D01*
X250245Y42189D01*
X250215Y42037D01*
Y37844D01*
X250298Y37426D01*
X250535Y37071D01*
X250760Y36921D01*
Y35630D01*
X250867Y35092D01*
X251172Y34637D01*
X255453Y30355D01*
X255608Y30251D01*
X255457Y29751D01*
X249043D01*
Y32479D01*
X249307Y32743D01*
X249606Y33467D01*
Y34250D01*
X249307Y34973D01*
X248753Y35527D01*
X248029Y35827D01*
X247246D01*
X246523Y35527D01*
X245969Y34973D01*
X245669Y34250D01*
Y33467D01*
X245969Y32743D01*
X246233Y32479D01*
Y29038D01*
X246340Y28501D01*
X246644Y28045D01*
X247336Y27353D01*
X247792Y27049D01*
X248330Y26941D01*
X272646D01*
X274597Y24991D01*
X274650Y24956D01*
X274498Y24456D01*
X272636D01*
X272619Y24544D01*
X272097Y25325D01*
X271315Y25847D01*
X270394Y26030D01*
X267244D01*
X266322Y25847D01*
X265541Y25325D01*
X265019Y24544D01*
X264836Y23622D01*
Y20472D01*
X265019Y19551D01*
X265541Y18769D01*
X266322Y18247D01*
X267244Y18064D01*
X270394D01*
X271315Y18247D01*
X272097Y18769D01*
X272619Y19551D01*
X272636Y19639D01*
X303491D01*
X308662Y14468D01*
Y13597D01*
X308919Y12636D01*
X309417Y11774D01*
X310120Y11070D01*
X310982Y10573D01*
X311944Y10315D01*
X312939D01*
X313900Y10573D01*
X314762Y11070D01*
X315465Y11774D01*
X315963Y12636D01*
X316221Y13597D01*
Y14592D01*
X315963Y15553D01*
X315465Y16415D01*
X314762Y17119D01*
X313900Y17616D01*
X312939Y17874D01*
X312068D01*
X306191Y23750D01*
X305699Y24079D01*
X305851Y24579D01*
X319969D01*
X328947Y15602D01*
X328919Y15553D01*
X328662Y14592D01*
Y13597D01*
X328919Y12636D01*
X329417Y11774D01*
X330120Y11070D01*
X330982Y10573D01*
X331943Y10315D01*
X332939D01*
X333900Y10573D01*
X334762Y11070D01*
X335466Y11774D01*
X335963Y12636D01*
X336221Y13597D01*
Y14592D01*
X335963Y15553D01*
X335466Y16415D01*
X334762Y17119D01*
X333900Y17616D01*
X332939Y17874D01*
X331943D01*
X330982Y17616D01*
X330934Y17589D01*
X322043Y26480D01*
X322234Y26941D01*
X348532D01*
X349902Y25572D01*
Y22047D01*
X351036D01*
Y17631D01*
X350982Y17616D01*
X350120Y17119D01*
X349417Y16415D01*
X348919Y15553D01*
X348662Y14592D01*
Y13597D01*
X348919Y12636D01*
X349417Y11774D01*
X350120Y11070D01*
X350982Y10573D01*
X351943Y10315D01*
X352939D01*
X353900Y10573D01*
X354762Y11070D01*
X355466Y11774D01*
X355963Y12636D01*
X356221Y13597D01*
Y14592D01*
X355963Y15553D01*
X355466Y16415D01*
X354762Y17119D01*
X353900Y17616D01*
X353846Y17631D01*
Y21694D01*
X354200Y22047D01*
X355020Y22047D01*
X355520Y22047D01*
X357382D01*
Y24803D01*
Y27559D01*
X355520D01*
X355217Y27559D01*
X354717Y27559D01*
X351888D01*
X350250Y29197D01*
X350452Y29697D01*
X362410D01*
X368987Y23121D01*
X369443Y22816D01*
X369980Y22709D01*
X399606D01*
Y21555D01*
X401036D01*
Y17631D01*
X400982Y17616D01*
X400120Y17119D01*
X399417Y16415D01*
X398919Y15553D01*
X398662Y14592D01*
Y13597D01*
X398919Y12636D01*
X399417Y11774D01*
X400120Y11070D01*
X400982Y10573D01*
X401943Y10315D01*
X402939D01*
X403900Y10573D01*
X404762Y11070D01*
X405466Y11774D01*
X405963Y12636D01*
X406221Y13597D01*
Y14592D01*
X405963Y15553D01*
X405466Y16415D01*
X404762Y17119D01*
X403900Y17616D01*
X403846Y17631D01*
Y21555D01*
X405118D01*
Y26370D01*
X405118Y26673D01*
X405118Y27173D01*
Y29035D01*
X402362D01*
X399606D01*
Y27173D01*
X399606Y26870D01*
X399606Y26370D01*
Y25519D01*
X370562D01*
X363986Y32096D01*
X363530Y32400D01*
X362992Y32507D01*
X334505D01*
X334314Y32969D01*
X334346Y33002D01*
X334646Y33725D01*
Y34508D01*
X334346Y35232D01*
X334082Y35495D01*
Y38878D01*
X335433D01*
Y43693D01*
X335433Y43996D01*
X335433Y44496D01*
Y46358D01*
X332677D01*
X329921D01*
Y44496D01*
X329921Y44193D01*
X329921Y43693D01*
Y42842D01*
X326280D01*
Y44094D01*
X319390D01*
Y37992D01*
X326280D01*
Y40032D01*
X329921D01*
Y38878D01*
X331272D01*
Y35495D01*
X331008Y35232D01*
X330709Y34508D01*
Y33725D01*
X331008Y33002D01*
X331041Y32969D01*
X330849Y32507D01*
X286880D01*
X286644Y33007D01*
X286885Y33590D01*
Y34373D01*
X286585Y35096D01*
X286284Y35397D01*
Y36945D01*
X286472Y37071D01*
X286709Y37426D01*
X286793Y37844D01*
Y42037D01*
X286709Y42456D01*
X286472Y42811D01*
X286118Y43048D01*
X285699Y43131D01*
X283986D01*
X283568Y43048D01*
X283265Y42845D01*
X283213Y42811D01*
X283051D01*
X282649Y42867D01*
X282507Y42961D01*
Y43403D01*
X282400Y43940D01*
X282096Y44396D01*
X281404Y45088D01*
X280948Y45393D01*
X280411Y45499D01*
X273188D01*
X272835Y45853D01*
X272835Y46752D01*
X272835Y47252D01*
Y49114D01*
D02*
G37*
G36*
X168058Y36189D02*
X167060D01*
X166097Y35931D01*
X165233Y35432D01*
X164528Y34727D01*
X164030Y33863D01*
X163772Y32900D01*
Y31903D01*
X164030Y30940D01*
X164528Y30076D01*
X165233Y29371D01*
X166097Y28872D01*
X167060Y28614D01*
X168058D01*
X169021Y28872D01*
X169885Y29371D01*
X170590Y30076D01*
X171088Y30940D01*
X171346Y31903D01*
Y32900D01*
X171088Y33863D01*
X170590Y34727D01*
X169885Y35432D01*
X169021Y35931D01*
X168058Y36189D01*
D02*
G37*
G36*
X187795Y30315D02*
X184646D01*
Y27362D01*
X187795D01*
Y30315D01*
D02*
G37*
G36*
X183858D02*
X180709D01*
Y27362D01*
X183858D01*
Y30315D01*
D02*
G37*
G36*
X358169Y27559D02*
Y25197D01*
X360335D01*
Y27559D01*
X358169D01*
D02*
G37*
G36*
X66142Y26476D02*
X63779D01*
Y24311D01*
X66142D01*
Y26476D01*
D02*
G37*
G36*
X62992D02*
X60630D01*
Y24311D01*
X62992D01*
Y26476D01*
D02*
G37*
G36*
X77165Y25591D02*
X74016D01*
Y22638D01*
X77165D01*
Y25591D01*
D02*
G37*
G36*
X73228D02*
X70079D01*
Y22638D01*
X73228D01*
Y25591D01*
D02*
G37*
G36*
X360335Y24409D02*
X358169D01*
Y22047D01*
X360335D01*
Y24409D01*
D02*
G37*
G36*
X430413Y23622D02*
X428248D01*
Y21260D01*
X430413D01*
Y23622D01*
D02*
G37*
G36*
X88058Y26189D02*
X87060D01*
X86097Y25931D01*
X85233Y25432D01*
X84528Y24727D01*
X84030Y23863D01*
X83772Y22900D01*
Y21903D01*
X84030Y20940D01*
X84528Y20076D01*
X85233Y19371D01*
X86097Y18872D01*
X87060Y18614D01*
X88058D01*
X89021Y18872D01*
X89885Y19371D01*
X90590Y20076D01*
X91088Y20940D01*
X91346Y21903D01*
Y22900D01*
X91088Y23863D01*
X90590Y24727D01*
X89885Y25432D01*
X89021Y25931D01*
X88058Y26189D01*
D02*
G37*
G36*
X240943Y61024D02*
X240160D01*
X239436Y60724D01*
X238882Y60170D01*
X238583Y59447D01*
Y58664D01*
X238583Y58662D01*
X238466Y58486D01*
X238359Y57948D01*
Y31102D01*
X238466Y30565D01*
X238770Y30109D01*
X245210Y23670D01*
X245150Y23567D01*
X244882Y22566D01*
Y21529D01*
X245150Y20528D01*
X245669Y19630D01*
X246402Y18897D01*
X247299Y18379D01*
X248301Y18110D01*
X249337D01*
X250339Y18379D01*
X251236Y18897D01*
X251969Y19630D01*
X252488Y20528D01*
X252756Y21529D01*
Y22566D01*
X252488Y23567D01*
X251969Y24465D01*
X251236Y25198D01*
X250339Y25716D01*
X249337Y25984D01*
X248301D01*
X247299Y25716D01*
X247197Y25657D01*
X241169Y31684D01*
Y57180D01*
X241666Y57386D01*
X242220Y57940D01*
X242520Y58664D01*
Y59447D01*
X242220Y60170D01*
X241666Y60724D01*
X240943Y61024D01*
D02*
G37*
G36*
X236218D02*
X235435D01*
X234712Y60724D01*
X234158Y60170D01*
X233858Y59447D01*
Y58664D01*
X234158Y57940D01*
X234422Y57676D01*
Y29134D01*
X234529Y28596D01*
X234833Y28140D01*
X236983Y25991D01*
X236917Y25495D01*
X236402Y25198D01*
X235668Y24465D01*
X235150Y23567D01*
X234882Y22566D01*
Y21529D01*
X235150Y20528D01*
X235668Y19630D01*
X236402Y18897D01*
X237299Y18379D01*
X238301Y18110D01*
X239337D01*
X240338Y18379D01*
X241236Y18897D01*
X241969Y19630D01*
X242488Y20528D01*
X242756Y21529D01*
Y22566D01*
X242488Y23567D01*
X241969Y24465D01*
X241236Y25198D01*
X240338Y25716D01*
X240089Y25783D01*
Y26277D01*
X239982Y26814D01*
X239678Y27270D01*
X237232Y29716D01*
Y57676D01*
X237496Y57940D01*
X237795Y58664D01*
Y59447D01*
X237496Y60170D01*
X236942Y60724D01*
X236218Y61024D01*
D02*
G37*
G36*
X510433Y21358D02*
X498819D01*
Y16302D01*
X486124D01*
X486088Y16482D01*
X485583Y17237D01*
X484828Y17742D01*
X483937Y17919D01*
X480945D01*
X480054Y17742D01*
X479299Y17237D01*
X478794Y16482D01*
X478617Y15591D01*
Y12598D01*
X478794Y11708D01*
X479299Y10952D01*
X480054Y10447D01*
X480945Y10270D01*
X483937D01*
X484828Y10447D01*
X485583Y10952D01*
X486088Y11708D01*
X486124Y11887D01*
X498819D01*
Y10138D01*
X510433D01*
Y21358D01*
D02*
G37*
G36*
X207480Y19291D02*
X204527D01*
Y16142D01*
X207480D01*
Y19291D01*
D02*
G37*
G36*
X534252Y21358D02*
X528839D01*
Y16142D01*
X534252D01*
Y21358D01*
D02*
G37*
G36*
X528051D02*
X522638D01*
Y16142D01*
X528051D01*
Y21358D01*
D02*
G37*
G36*
X559027Y23610D02*
X557965D01*
X556939Y23335D01*
X556018Y22804D01*
X555267Y22053D01*
X554736Y21132D01*
X554461Y20106D01*
Y19044D01*
X554736Y18017D01*
X555267Y17097D01*
X556018Y16346D01*
X556939Y15814D01*
X557965Y15539D01*
X559027D01*
X560054Y15814D01*
X560974Y16346D01*
X561725Y17097D01*
X562256Y18017D01*
X562532Y19044D01*
Y20106D01*
X562256Y21132D01*
X561725Y22053D01*
X560974Y22804D01*
X560054Y23335D01*
X559027Y23610D01*
D02*
G37*
G36*
X207480Y15354D02*
X204527D01*
Y12205D01*
X207480D01*
Y15354D01*
D02*
G37*
G36*
X472939Y17874D02*
X471944D01*
X470982Y17616D01*
X470120Y17119D01*
X469417Y16415D01*
X468919Y15553D01*
X468662Y14592D01*
Y13597D01*
X468919Y12636D01*
X469417Y11774D01*
X470120Y11070D01*
X470982Y10573D01*
X471944Y10315D01*
X472939D01*
X473900Y10573D01*
X474762Y11070D01*
X475465Y11774D01*
X475963Y12636D01*
X476221Y13597D01*
Y14592D01*
X475963Y15553D01*
X475465Y16415D01*
X474762Y17119D01*
X473900Y17616D01*
X472939Y17874D01*
D02*
G37*
G36*
X462939D02*
X461943D01*
X460982Y17616D01*
X460120Y17119D01*
X459417Y16415D01*
X458919Y15553D01*
X458662Y14592D01*
Y13597D01*
X458919Y12636D01*
X459417Y11774D01*
X460120Y11070D01*
X460982Y10573D01*
X461943Y10315D01*
X462939D01*
X463900Y10573D01*
X464762Y11070D01*
X465465Y11774D01*
X465963Y12636D01*
X466221Y13597D01*
Y14592D01*
X465963Y15553D01*
X465465Y16415D01*
X464762Y17119D01*
X463900Y17616D01*
X462939Y17874D01*
D02*
G37*
G36*
X452939D02*
X451943D01*
X450982Y17616D01*
X450120Y17119D01*
X449417Y16415D01*
X448919Y15553D01*
X448662Y14592D01*
Y13597D01*
X448919Y12636D01*
X449417Y11774D01*
X450120Y11070D01*
X450982Y10573D01*
X451943Y10315D01*
X452939D01*
X453900Y10573D01*
X454762Y11070D01*
X455466Y11774D01*
X455963Y12636D01*
X456221Y13597D01*
Y14592D01*
X455963Y15553D01*
X455466Y16415D01*
X454762Y17119D01*
X453900Y17616D01*
X452939Y17874D01*
D02*
G37*
G36*
X442939D02*
X441944D01*
X440982Y17616D01*
X440120Y17119D01*
X439417Y16415D01*
X438919Y15553D01*
X438662Y14592D01*
Y13597D01*
X438919Y12636D01*
X439417Y11774D01*
X440120Y11070D01*
X440982Y10573D01*
X441944Y10315D01*
X442939D01*
X443900Y10573D01*
X444762Y11070D01*
X445466Y11774D01*
X445963Y12636D01*
X446221Y13597D01*
Y14592D01*
X445963Y15553D01*
X445466Y16415D01*
X444762Y17119D01*
X443900Y17616D01*
X442939Y17874D01*
D02*
G37*
G36*
X432939D02*
X431944D01*
X430982Y17616D01*
X430120Y17119D01*
X429417Y16415D01*
X428919Y15553D01*
X428662Y14592D01*
Y13597D01*
X428919Y12636D01*
X429417Y11774D01*
X430120Y11070D01*
X430982Y10573D01*
X431944Y10315D01*
X432939D01*
X433900Y10573D01*
X434762Y11070D01*
X435465Y11774D01*
X435963Y12636D01*
X436221Y13597D01*
Y14592D01*
X435963Y15553D01*
X435465Y16415D01*
X434762Y17119D01*
X433900Y17616D01*
X432939Y17874D01*
D02*
G37*
G36*
X392939D02*
X391944D01*
X390982Y17616D01*
X390120Y17119D01*
X389417Y16415D01*
X388919Y15553D01*
X388662Y14592D01*
Y13597D01*
X388919Y12636D01*
X389417Y11774D01*
X390120Y11070D01*
X390982Y10573D01*
X391944Y10315D01*
X392939D01*
X393900Y10573D01*
X394762Y11070D01*
X395465Y11774D01*
X395963Y12636D01*
X396221Y13597D01*
Y14592D01*
X395963Y15553D01*
X395465Y16415D01*
X394762Y17119D01*
X393900Y17616D01*
X392939Y17874D01*
D02*
G37*
G36*
X382939D02*
X381943D01*
X380982Y17616D01*
X380120Y17119D01*
X379417Y16415D01*
X378919Y15553D01*
X378662Y14592D01*
Y13597D01*
X378919Y12636D01*
X379417Y11774D01*
X380120Y11070D01*
X380982Y10573D01*
X381943Y10315D01*
X382939D01*
X383900Y10573D01*
X384762Y11070D01*
X385466Y11774D01*
X385963Y12636D01*
X386221Y13597D01*
Y14592D01*
X385963Y15553D01*
X385466Y16415D01*
X384762Y17119D01*
X383900Y17616D01*
X382939Y17874D01*
D02*
G37*
G36*
X372939D02*
X371943D01*
X370982Y17616D01*
X370120Y17119D01*
X369417Y16415D01*
X368919Y15553D01*
X368662Y14592D01*
Y13597D01*
X368919Y12636D01*
X369417Y11774D01*
X370120Y11070D01*
X370982Y10573D01*
X371943Y10315D01*
X372939D01*
X373900Y10573D01*
X374762Y11070D01*
X375465Y11774D01*
X375963Y12636D01*
X376221Y13597D01*
Y14592D01*
X375963Y15553D01*
X375465Y16415D01*
X374762Y17119D01*
X373900Y17616D01*
X372939Y17874D01*
D02*
G37*
G36*
X362939D02*
X361944D01*
X360982Y17616D01*
X360120Y17119D01*
X359417Y16415D01*
X358919Y15553D01*
X358662Y14592D01*
Y13597D01*
X358919Y12636D01*
X359417Y11774D01*
X360120Y11070D01*
X360982Y10573D01*
X361944Y10315D01*
X362939D01*
X363900Y10573D01*
X364762Y11070D01*
X365465Y11774D01*
X365963Y12636D01*
X366221Y13597D01*
Y14592D01*
X365963Y15553D01*
X365465Y16415D01*
X364762Y17119D01*
X363900Y17616D01*
X362939Y17874D01*
D02*
G37*
G36*
X229921Y56330D02*
X223622D01*
X222697Y56208D01*
X221835Y55851D01*
X221095Y55283D01*
X220527Y54543D01*
X220170Y53681D01*
X220048Y52756D01*
X220170Y51831D01*
X220527Y50969D01*
X221095Y50229D01*
X222410Y48913D01*
Y32299D01*
X211417D01*
X211110Y32238D01*
X210850Y32064D01*
X210676Y31803D01*
X210614Y31496D01*
X210614Y19291D01*
X208268D01*
Y15748D01*
Y12205D01*
X210614D01*
Y11417D01*
X210676Y11110D01*
X210850Y10850D01*
X211110Y10676D01*
X211417Y10615D01*
X228740D01*
X229047Y10676D01*
X229308Y10850D01*
X229482Y11110D01*
X229538Y11394D01*
X289797D01*
X290120Y11070D01*
X290982Y10573D01*
X291944Y10315D01*
X292939D01*
X293900Y10573D01*
X294762Y11070D01*
X295465Y11774D01*
X295963Y12636D01*
X296221Y13597D01*
Y14592D01*
X295963Y15553D01*
X295465Y16415D01*
X294762Y17119D01*
X293900Y17616D01*
X292939Y17874D01*
X291944D01*
X290982Y17616D01*
X290120Y17119D01*
X289954Y16953D01*
X229543D01*
X229543Y29917D01*
X229558Y30032D01*
Y49182D01*
X229921D01*
X230846Y49304D01*
X231708Y49661D01*
X232448Y50229D01*
X233016Y50969D01*
X233373Y51831D01*
X233495Y52756D01*
X233373Y53681D01*
X233016Y54543D01*
X232448Y55283D01*
X231708Y55851D01*
X230846Y56208D01*
X229921Y56330D01*
D02*
G37*
G36*
X534252Y15354D02*
X528839D01*
Y10138D01*
X534252D01*
Y15354D01*
D02*
G37*
G36*
X528051D02*
X522638D01*
Y10138D01*
X528051D01*
Y15354D01*
D02*
G37*
G36*
X559027Y13610D02*
X557965D01*
X556939Y13335D01*
X556018Y12804D01*
X555267Y12053D01*
X554736Y11132D01*
X554461Y10106D01*
Y9043D01*
X554736Y8017D01*
X555267Y7097D01*
X556018Y6346D01*
X556939Y5814D01*
X557965Y5539D01*
X559027D01*
X560054Y5814D01*
X560974Y6346D01*
X561725Y7097D01*
X562256Y8017D01*
X562532Y9043D01*
Y10106D01*
X562256Y11132D01*
X561725Y12053D01*
X560974Y12804D01*
X560054Y13335D01*
X559027Y13610D01*
D02*
G37*
%LPD*%
G36*
X228740Y11417D02*
X211417D01*
Y12205D01*
X213779D01*
Y15748D01*
Y19291D01*
X211417D01*
X211417Y31496D01*
X228740D01*
X228740Y11417D01*
D02*
G37*
%LPC*%
G36*
X217520Y19291D02*
X214567D01*
Y16142D01*
X217520D01*
Y19291D01*
D02*
G37*
G36*
Y15354D02*
X214567D01*
Y12205D01*
X217520D01*
Y15354D01*
D02*
G37*
%LPD*%
D12*
X750197Y178937D02*
X750295Y178839D01*
Y169390D02*
Y178839D01*
X65157Y166339D02*
X83662D01*
X61721Y169776D02*
X65157Y166339D01*
X61221Y173260D02*
X61721Y172760D01*
X61221Y173260D02*
Y178937D01*
X61721Y169776D02*
Y172760D01*
X366331Y164567D02*
X367921D01*
X651772Y168307D02*
X654921Y165157D01*
X661840Y165326D02*
X663758D01*
X661220Y165157D02*
X661614Y165551D01*
X760032Y164567D02*
X761622D01*
X651772Y198622D02*
X674213D01*
X750197D02*
X772638D01*
X464989Y165326D02*
X466908D01*
X563182Y164567D02*
X564771D01*
X454921Y198622D02*
X477362D01*
X553346D02*
X575787D01*
X268139Y165326D02*
X270058D01*
X366331Y164567D02*
X367921D01*
X258071Y198622D02*
X280512D01*
X356496D02*
X378937D01*
X61221D02*
X83662D01*
X169481Y164567D02*
X171070D01*
X159646Y198622D02*
X182087D01*
X258071Y168014D02*
Y178937D01*
Y168014D02*
X260731Y165354D01*
X261024D02*
X261319Y165059D01*
X260731Y165354D02*
X261024D01*
X267872Y165059D02*
X268139Y165326D01*
X261319Y165059D02*
X267872D01*
X270058Y165326D02*
X271070Y166339D01*
X280512D01*
X458218Y165207D02*
X458440Y164985D01*
X464649D02*
X464989Y165326D01*
X458022Y165207D02*
X458218D01*
X454921Y168307D02*
X458022Y165207D01*
X458440Y164985D02*
X464649D01*
X454921Y168307D02*
Y178937D01*
X466908Y165326D02*
X467921Y166339D01*
X477362D01*
X664771D02*
X674213D01*
X651772Y168307D02*
Y178937D01*
X661614Y165551D02*
X661840Y165326D01*
X654921Y165157D02*
X661220D01*
X663758Y165326D02*
X664771Y166339D01*
X651772Y184843D02*
Y193504D01*
X750197Y184843D02*
Y193504D01*
X454921Y184843D02*
Y193504D01*
X553346Y170079D02*
Y178937D01*
Y184843D02*
Y193504D01*
X258071Y184843D02*
Y193504D01*
X356496Y170079D02*
Y178937D01*
Y184843D02*
Y193504D01*
X61221Y184843D02*
Y193504D01*
X159646Y170079D02*
Y178937D01*
Y184843D02*
Y193504D01*
D36*
X258819Y22047D02*
D03*
X248819D02*
D03*
X238819D02*
D03*
D55*
X497441Y54724D02*
D03*
X493898D02*
D03*
X263189Y58268D02*
D03*
X259646D02*
D03*
X288386D02*
D03*
X284842D02*
D03*
X523425Y54724D02*
D03*
X526968D02*
D03*
X248622Y58268D02*
D03*
X252165D02*
D03*
X482874Y54724D02*
D03*
X486417D02*
D03*
X515945D02*
D03*
X512402D02*
D03*
X273819Y58268D02*
D03*
X277362D02*
D03*
D56*
X507874Y40256D02*
D03*
Y45571D02*
D03*
X63386Y32185D02*
D03*
Y26870D02*
D03*
X412599Y29429D02*
D03*
Y24114D02*
D03*
X478346Y45571D02*
D03*
Y40256D02*
D03*
X270079Y44193D02*
D03*
Y49508D02*
D03*
X244882Y43799D02*
D03*
Y49114D02*
D03*
X402362Y24114D02*
D03*
Y29429D02*
D03*
X332677Y41437D02*
D03*
Y46752D02*
D03*
D57*
X73622Y25984D02*
D03*
Y32283D02*
D03*
X184252Y30709D02*
D03*
Y37008D02*
D03*
D58*
X504626Y15748D02*
D03*
X528445D02*
D03*
D59*
X356496Y198622D02*
D03*
Y193504D02*
D03*
X553346Y198622D02*
D03*
Y193504D02*
D03*
X454921Y198622D02*
D03*
Y193504D02*
D03*
X258071Y198622D02*
D03*
Y193504D02*
D03*
X750197Y198622D02*
D03*
Y193504D02*
D03*
X651772Y198622D02*
D03*
Y193504D02*
D03*
X159646Y198622D02*
D03*
Y193504D02*
D03*
X61221Y198622D02*
D03*
Y193504D02*
D03*
D60*
X553346Y178937D02*
D03*
Y184843D02*
D03*
X356496Y178937D02*
D03*
Y184843D02*
D03*
X454921Y178937D02*
D03*
Y184843D02*
D03*
X258071Y178937D02*
D03*
Y184843D02*
D03*
X651772Y178937D02*
D03*
Y184843D02*
D03*
X750197Y178937D02*
D03*
Y184843D02*
D03*
X159646D02*
D03*
Y178937D02*
D03*
X61221Y184843D02*
D03*
Y178937D02*
D03*
D61*
X753740Y47244D02*
D03*
X736811D02*
D03*
D62*
X214173Y15748D02*
D03*
X207874D02*
D03*
D63*
X252165Y39941D02*
D03*
X255906D02*
D03*
X259646D02*
D03*
X252165Y49823D02*
D03*
X255906D02*
D03*
X259646D02*
D03*
X493898Y45886D02*
D03*
X490157D02*
D03*
X486417D02*
D03*
X493898Y36004D02*
D03*
X490157D02*
D03*
X486417D02*
D03*
X277362Y39941D02*
D03*
X281102D02*
D03*
X284843D02*
D03*
X277362Y49823D02*
D03*
X281102D02*
D03*
X284843D02*
D03*
X515945Y36004D02*
D03*
X519685D02*
D03*
X523425D02*
D03*
X515945Y45886D02*
D03*
X519685D02*
D03*
X523425D02*
D03*
D64*
X322835Y41043D02*
D03*
Y47933D02*
D03*
D65*
X196457Y26575D02*
D03*
X205512D02*
D03*
X214567D02*
D03*
D66*
X205512Y51378D02*
D03*
D67*
X352461Y24803D02*
D03*
X357776D02*
D03*
X427854Y24016D02*
D03*
X422539D02*
D03*
D68*
X87441Y32283D02*
X87559Y32401D01*
X62205Y77756D02*
X62402Y77953D01*
X62205Y78150D02*
Y100000D01*
X503150Y115748D02*
X531299D01*
X531625D02*
X629724D01*
X334646D02*
X432874D01*
X305512D02*
X334449D01*
X699606D02*
X728150D01*
X671260Y119685D02*
X695669D01*
X699606Y115748D01*
X667323D02*
X671260Y119685D01*
X629724Y115748D02*
X667323D01*
X475984Y119685D02*
X499213D01*
X472047Y115748D02*
X475984Y119685D01*
X433071Y115748D02*
X472047D01*
X499213Y119685D02*
X503150Y115748D01*
X276772Y119685D02*
X301575D01*
X272835Y115748D02*
X276772Y119685D01*
X301575D02*
X305512Y115748D01*
X268819Y22047D02*
X304488D01*
X268819Y22047D02*
X268819Y22047D01*
X304488D02*
X312441Y14095D01*
X77953Y115748D02*
X137722D01*
X62205Y100000D02*
X77953Y115748D01*
X236024D02*
X272835D01*
X137722D02*
X236024D01*
D69*
X419291Y67716D02*
X477165D01*
X417323Y69685D02*
X419291Y67716D01*
X477165D02*
X486417Y58465D01*
X417323Y69685D02*
Y86221D01*
X411159Y92385D02*
X417323Y86221D01*
X411122Y92385D02*
X411159D01*
X406946Y96561D02*
X411122Y92385D01*
X68110Y91339D02*
X71653D01*
X81299Y81693D02*
X241535D01*
X71653Y91339D02*
X81299Y81693D01*
X241535D02*
X252165Y71063D01*
X322835Y41043D02*
X323228Y41437D01*
X332677D01*
X332677Y41437D02*
X332677Y41437D01*
X332677Y41437D02*
X332677Y41437D01*
X490157Y45886D02*
Y51181D01*
X490158Y51181D01*
X490157Y45886D02*
X490157Y45886D01*
X519685Y45886D02*
Y51181D01*
X519685Y51181D02*
X519685Y51181D01*
Y45886D02*
X519685Y45886D01*
X518993Y40551D02*
X519685Y39859D01*
X507874Y40256D02*
X508169Y40551D01*
X518993D01*
X519685Y36004D02*
Y39859D01*
X523425Y34925D02*
Y36004D01*
Y34925D02*
X523977Y34373D01*
X527831D01*
X527956Y34249D01*
X494449Y34375D02*
X499090D01*
X493898Y34926D02*
X494449Y34375D01*
X499090D02*
X499213Y34252D01*
X493898Y34926D02*
Y36004D01*
X332677Y34117D02*
Y41437D01*
X490093Y36068D02*
Y39439D01*
X478445Y40157D02*
X489375D01*
X490093Y36068D02*
X490158Y36004D01*
X489375Y40157D02*
X490093Y39439D01*
X478346Y40256D02*
X478445Y40157D01*
X288206Y45259D02*
X288583Y44882D01*
X282030Y45259D02*
X288206D01*
X281102Y46187D02*
X282030Y45259D01*
X255906Y46187D02*
X257210Y44882D01*
X263386D01*
X255906Y46187D02*
Y49823D01*
X281102Y46187D02*
Y49823D01*
X270177Y44094D02*
X280411D01*
X270079Y44193D02*
X270177Y44094D01*
X281102Y39941D02*
Y43403D01*
X280411Y44094D02*
X281102Y43403D01*
X245177Y44094D02*
X255157D01*
X255849Y43403D01*
Y39997D02*
Y43403D01*
Y39997D02*
X255906Y39941D01*
X244882Y43799D02*
X245177Y44094D01*
X369980Y24114D02*
X402362D01*
X281102Y31102D02*
X362992D01*
X369980Y24114D01*
X422733Y24210D02*
Y27261D01*
X423425Y27953D01*
X511417D02*
X515945Y32480D01*
X423425Y27953D02*
X511417D01*
X422441Y23918D02*
X422733Y24210D01*
X413780Y25295D02*
X414272D01*
X420472Y31496D01*
X485725D01*
X412441Y23957D02*
X413780Y25295D01*
X485725Y31496D02*
X486417Y32188D01*
Y36004D01*
X239764Y57948D02*
X240551Y58736D01*
X239764Y31102D02*
Y57948D01*
X240551Y58736D02*
Y59055D01*
X235827Y29134D02*
Y59055D01*
X238684Y22182D02*
Y26277D01*
Y22182D02*
X238819Y22047D01*
X235827Y29134D02*
X238684Y26277D01*
X161811Y5906D02*
X314567D01*
X157480Y10236D02*
Y59055D01*
Y10236D02*
X161811Y5906D01*
X314567D02*
X322599Y13937D01*
X331890Y3543D02*
X342441Y14095D01*
X149213Y3543D02*
X331890D01*
X110354Y42401D02*
X149213Y3543D01*
X111417Y102362D02*
X122047Y91732D01*
X238976D01*
X259646Y71063D01*
X515945Y45886D02*
X515945Y45886D01*
X515945Y54724D02*
X515945Y54724D01*
Y45886D02*
Y54724D01*
X515945Y32480D02*
Y36004D01*
X486417Y45886D02*
X486417Y45886D01*
X486417Y45886D02*
Y54724D01*
X486417Y54724D02*
X486417Y54724D01*
X493898Y54724D02*
X493898Y54724D01*
X493898Y45886D02*
X493898Y45886D01*
Y54724D01*
X523425Y45886D02*
Y54724D01*
X523425Y54724D02*
X523425Y54724D01*
Y45886D02*
X523425Y45886D01*
X529921Y75590D02*
X657480D01*
X670950Y89060D02*
Y89060D01*
X523425Y54724D02*
Y69095D01*
X529921Y75590D01*
X657480D02*
X670950Y89060D01*
Y89060D02*
X683071Y101181D01*
X493898Y54724D02*
Y73819D01*
X488189Y79528D02*
X493898Y73819D01*
X488189Y79528D02*
Y101181D01*
X592126Y78740D02*
X604331Y90945D01*
X486417Y54724D02*
Y58465D01*
X515945Y54724D02*
Y69095D01*
X525591Y78740D01*
X592126D01*
X252165Y35630D02*
Y39941D01*
X256447Y31348D02*
X275738D01*
X252165Y35630D02*
X256447Y31348D01*
X247638Y29038D02*
X248330Y28346D01*
X273228D01*
X247638Y29038D02*
Y33858D01*
X273228Y28346D02*
X275591Y25984D01*
X277362Y49823D02*
Y77362D01*
X258661Y96063D02*
X277362Y77362D01*
X252165Y58268D02*
Y71063D01*
X259646Y58268D02*
Y71063D01*
Y49823D02*
Y58268D01*
Y49823D02*
X259646Y49823D01*
X275738Y31348D02*
X278740Y28346D01*
X349114D01*
X239764Y31102D02*
X248819Y22047D01*
X275591Y25984D02*
X320551D01*
X332441Y14095D01*
X349114Y28346D02*
X352461Y25000D01*
X277362Y34843D02*
X281102Y31102D01*
X277362Y34843D02*
Y39941D01*
X284879Y34018D02*
X284916Y33981D01*
X284843Y39941D02*
X284879Y39904D01*
Y34018D02*
Y39904D01*
X259719Y33981D02*
X259793Y33907D01*
X259646Y39941D02*
X259719Y39867D01*
Y33981D02*
Y39867D01*
X352461Y24803D02*
Y25000D01*
X284842Y58268D02*
Y95547D01*
X290871Y101575D01*
X252165Y49823D02*
X252165Y49823D01*
Y58268D01*
X252165Y58268D01*
X284842D02*
X284843Y58268D01*
Y49823D02*
X284843Y49823D01*
X284843Y49823D02*
Y58268D01*
X412441Y14095D02*
Y23957D01*
X422441Y14095D02*
Y23918D01*
X402362Y24114D02*
X402441Y24035D01*
Y14095D02*
Y24035D01*
X352441Y24784D02*
X352461Y24803D01*
X352441Y14095D02*
Y24784D01*
X87559Y42401D02*
X110354D01*
X157480Y59055D02*
X160827Y62401D01*
X167559D01*
D70*
X713779Y19193D02*
X718209Y14764D01*
X733858D01*
D71*
X689370Y64961D02*
X713681D01*
X661130D02*
X689370D01*
X713878D02*
X730188D01*
X713681D02*
X713779Y65059D01*
X713878Y64961D01*
X661018Y64848D02*
X661130Y64961D01*
X657480Y64095D02*
X658234Y64848D01*
X661018D01*
X737008Y48720D02*
Y57846D01*
X730041Y64813D02*
X737008Y57846D01*
D72*
X85827Y109449D02*
X169131D01*
X169224Y109542D01*
X184025D02*
X275725D01*
X169224D02*
X184025D01*
X674409Y113386D02*
X675984D01*
X691732D02*
X695669Y109449D01*
X764961D01*
X681496Y113386D02*
X691732D01*
X675984D02*
X681496D01*
X670472Y109449D02*
X674409Y113386D01*
X583071Y109449D02*
X670472D01*
X577756D02*
X583071D01*
X479134Y113386D02*
X495276D01*
X499213Y109449D01*
X475197D02*
X479134Y113386D01*
X351181Y109449D02*
X381102D01*
X302362D02*
X351181D01*
X381102D02*
X475197D01*
X764961Y114813D02*
Y115995D01*
X768651Y119685D01*
X783071D01*
X547687Y109449D02*
X577756D01*
X287795Y113386D02*
X298425D01*
X282677D02*
X287795D01*
X499213Y109449D02*
X547687D01*
X298425Y113386D02*
X302362Y109449D01*
X279569Y113386D02*
X282677D01*
X275725Y109542D02*
X279569Y113386D01*
D73*
X73573Y32234D02*
X73622Y32283D01*
X73573Y32234D02*
X73681Y32342D01*
X63435Y32234D02*
X73573D01*
X63386Y32185D02*
X63435Y32234D01*
X73681Y32342D02*
X87382D01*
X87441Y32283D01*
D74*
X225984Y30032D02*
Y50394D01*
X223622Y52756D02*
X225984D01*
X223622D02*
X225984Y50394D01*
Y52756D02*
X229921D01*
X214370Y26378D02*
X214567Y26575D01*
X736811Y47244D02*
Y48524D01*
X737008Y48720D01*
X688673Y11417D02*
X689764D01*
X657480Y9921D02*
X687177D01*
X688673Y11417D01*
X631762Y9575D02*
X632109Y9921D01*
X631496Y9575D02*
X631762D01*
X632109Y9921D02*
X657480D01*
D75*
X691732Y102362D02*
X733858D01*
X687795Y106299D02*
X691732Y102362D01*
X675591D02*
X679528Y106299D01*
X733858Y102362D02*
X736221Y100000D01*
X679528Y106299D02*
X687795D01*
X205906Y38583D02*
X214961D01*
X204331Y37008D02*
X205906Y38583D01*
X184252Y37008D02*
X204331D01*
X62402Y77953D02*
X175984D01*
X184252Y37008D02*
Y69685D01*
X175984Y77953D02*
X184252Y69685D01*
X548032Y102362D02*
X675591D01*
X548032Y102362D02*
X548032Y102362D01*
X482283Y106299D02*
X491339D01*
X495276Y102362D02*
X548032D01*
X491339Y106299D02*
X495276Y102362D01*
X478346D02*
X482283Y106299D01*
X351181Y102362D02*
X478346D01*
X351181Y102362D02*
X351181Y102362D01*
X351181D02*
X351181Y102362D01*
X154724Y102362D02*
X280315D01*
X284252Y106299D02*
X294094D01*
X280315Y102362D02*
X284252Y106299D01*
X298031Y102362D02*
X351181D01*
X294094Y106299D02*
X298031Y102362D01*
X736221Y70993D02*
Y100000D01*
X730041Y64813D02*
X736221Y70993D01*
D76*
X501575Y39419D02*
X501788D01*
X502624Y40256D01*
X507874D01*
X473934D02*
X478346D01*
X472835Y39370D02*
X473048D01*
X473934Y40256D01*
X270079Y39370D02*
X270079Y39370D01*
Y44193D01*
X244882Y39370D02*
Y43799D01*
X244882Y43799D02*
X244882Y43799D01*
D77*
X62205Y78150D02*
X62402Y77953D01*
X531299Y115748D02*
X531367D01*
X432874D02*
X432920D01*
X334449D02*
X334529D01*
X502973Y14095D02*
X504626Y15748D01*
X482441Y14095D02*
X502973D01*
X531496Y115619D02*
X531625Y115748D01*
X531367D02*
X531496Y115619D01*
X334587Y115690D02*
X334646Y115748D01*
X432920D02*
X432996Y115673D01*
X433071Y115748D01*
X334529D02*
X334587Y115690D01*
D78*
X223622Y14173D02*
X292362D01*
X205090Y26997D02*
X205512Y26575D01*
D79*
X764961Y114813D02*
X764961Y114813D01*
Y109449D02*
Y114813D01*
Y65748D02*
Y109449D01*
X753740Y14961D02*
Y47244D01*
Y54528D01*
X753543Y14764D02*
X753740Y14961D01*
Y54528D02*
X764961Y65748D01*
X631496Y9575D02*
Y19575D01*
D80*
X677362Y220079D02*
D03*
X753740Y220079D02*
D03*
X360039D02*
D03*
X556890D02*
D03*
X261614D02*
D03*
X507677D02*
D03*
X578937D02*
D03*
X310827D02*
D03*
X332480D02*
D03*
X234449D02*
D03*
X431299D02*
D03*
X212402D02*
D03*
X480512D02*
D03*
X283662D02*
D03*
X409252D02*
D03*
X529331D02*
D03*
X775787D02*
D03*
X458465D02*
D03*
X37598D02*
D03*
X726181D02*
D03*
X606103D02*
D03*
X654921D02*
D03*
X704528D02*
D03*
X185236D02*
D03*
X628150D02*
D03*
X163189D02*
D03*
X15551D02*
D03*
X86811D02*
D03*
X64764D02*
D03*
X135630D02*
D03*
X113976D02*
D03*
X382087D02*
D03*
D81*
X87559Y62401D02*
D03*
Y52402D02*
D03*
Y42401D02*
D03*
Y32401D02*
D03*
Y22401D02*
D03*
X167559Y62401D02*
D03*
Y52402D02*
D03*
Y42401D02*
D03*
Y32401D02*
D03*
Y22401D02*
D03*
D82*
X87559Y12402D02*
D03*
X167559D02*
D03*
D83*
X713779Y65059D02*
D03*
D84*
Y19193D02*
D03*
D85*
X689764Y11417D02*
D03*
Y25197D02*
D03*
X689370Y64961D02*
D03*
Y51181D02*
D03*
D86*
X48622Y77953D02*
D03*
X62402D02*
D03*
D87*
X268819Y22047D02*
D03*
D88*
X575787Y184055D02*
D03*
Y166339D02*
D03*
Y198622D02*
D03*
Y151772D02*
D03*
X378937Y184055D02*
D03*
Y166339D02*
D03*
Y198622D02*
D03*
Y151772D02*
D03*
X280512Y184055D02*
D03*
Y166339D02*
D03*
Y198622D02*
D03*
Y151772D02*
D03*
X477362Y184055D02*
D03*
Y166339D02*
D03*
Y198622D02*
D03*
Y151772D02*
D03*
X772638Y184055D02*
D03*
Y166339D02*
D03*
Y198622D02*
D03*
Y151772D02*
D03*
X674213Y184055D02*
D03*
Y166339D02*
D03*
Y198622D02*
D03*
Y151772D02*
D03*
X182087Y184055D02*
D03*
Y198622D02*
D03*
Y166339D02*
D03*
Y151772D02*
D03*
X83662Y198622D02*
D03*
Y184055D02*
D03*
Y166339D02*
D03*
Y151772D02*
D03*
D89*
X454882Y152362D02*
D03*
X258031D02*
D03*
X356457Y152165D02*
D03*
X553307D02*
D03*
X750157D02*
D03*
X651732Y152362D02*
D03*
X61181D02*
D03*
X159606Y152165D02*
D03*
D90*
X444882Y152362D02*
D03*
X248031D02*
D03*
X346457Y152165D02*
D03*
X543307D02*
D03*
X740157D02*
D03*
X641732Y152362D02*
D03*
X51181D02*
D03*
X149606Y152165D02*
D03*
D91*
X434882Y152362D02*
D03*
X238031D02*
D03*
X336457Y152165D02*
D03*
X533307D02*
D03*
X730157D02*
D03*
X631732Y152362D02*
D03*
X41181D02*
D03*
X139606Y152165D02*
D03*
D92*
X452520Y74016D02*
D03*
X442520D02*
D03*
X402520D02*
D03*
X382520D02*
D03*
X352520D02*
D03*
X312520D02*
D03*
X302520D02*
D03*
X322520D02*
D03*
X332520D02*
D03*
X342520D02*
D03*
X362520D02*
D03*
X372520D02*
D03*
X392520D02*
D03*
X412520D02*
D03*
X422520D02*
D03*
X432520D02*
D03*
X462520D02*
D03*
X472520D02*
D03*
X482520D02*
D03*
X322441Y14095D02*
D03*
X332441D02*
D03*
X372441D02*
D03*
X392441D02*
D03*
X422441D02*
D03*
X462441D02*
D03*
X472441D02*
D03*
X452441D02*
D03*
X442441D02*
D03*
X432441D02*
D03*
X412441D02*
D03*
X402441D02*
D03*
X382441D02*
D03*
X362441D02*
D03*
X352441D02*
D03*
X342441D02*
D03*
X312441D02*
D03*
X302441D02*
D03*
X292441D02*
D03*
D93*
X292520Y74016D02*
D03*
X482441Y14095D02*
D03*
D94*
X657480Y64095D02*
D03*
D95*
Y9921D02*
D03*
D96*
X733858Y14764D02*
D03*
D97*
X753543D02*
D03*
D98*
X558496Y51575D02*
D03*
Y19575D02*
D03*
Y9575D02*
D03*
Y61575D02*
D03*
X631496Y51575D02*
D03*
Y61575D02*
D03*
Y19575D02*
D03*
Y9575D02*
D03*
D99*
X11811Y11811D02*
D03*
X779528D02*
D03*
X11811Y73228D02*
D03*
X779528D02*
D03*
X739961Y128347D02*
D03*
X641536Y128543D02*
D03*
X543110Y128347D02*
D03*
X444685Y128543D02*
D03*
X346260Y128347D02*
D03*
X247835Y128543D02*
D03*
X149409Y128347D02*
D03*
X50984D02*
D03*
X703740Y149803D02*
D03*
X605315Y150000D02*
D03*
X506890Y149803D02*
D03*
X408465Y150000D02*
D03*
X310039Y149803D02*
D03*
X211614Y150000D02*
D03*
X113189Y149803D02*
D03*
X14764Y150000D02*
D03*
D100*
X57087Y232677D02*
D03*
X272441Y232283D02*
D03*
X75591D02*
D03*
X94094D02*
D03*
X241732D02*
D03*
X204724Y232677D02*
D03*
X223228Y232283D02*
D03*
X143307D02*
D03*
X106299Y232677D02*
D03*
X124803Y232283D02*
D03*
X253937Y232677D02*
D03*
X290945Y232283D02*
D03*
X155512Y232677D02*
D03*
X174016Y232283D02*
D03*
X192520D02*
D03*
X450787Y232677D02*
D03*
X487795Y232283D02*
D03*
X44882D02*
D03*
X7874Y232677D02*
D03*
X26378Y232283D02*
D03*
X469291D02*
D03*
X715354D02*
D03*
X684252D02*
D03*
X733858D02*
D03*
X696850Y232677D02*
D03*
X746063D02*
D03*
X764567Y232283D02*
D03*
X783071D02*
D03*
X647244Y232677D02*
D03*
X665748Y232283D02*
D03*
X635433D02*
D03*
X616929D02*
D03*
X598425Y232677D02*
D03*
X537008Y232283D02*
D03*
X518504D02*
D03*
X549213Y232677D02*
D03*
X567717Y232283D02*
D03*
X586220D02*
D03*
X500000Y232677D02*
D03*
X352362D02*
D03*
X370866Y232283D02*
D03*
X389370D02*
D03*
X438583D02*
D03*
X401575Y232677D02*
D03*
X420079Y232283D02*
D03*
X303150Y232677D02*
D03*
X340157Y232283D02*
D03*
X321654D02*
D03*
X48819Y171063D02*
D03*
X53347Y197835D02*
D03*
X48819Y181693D02*
D03*
X53150Y187205D02*
D03*
X48425Y192323D02*
D03*
X36220Y146654D02*
D03*
Y157284D02*
D03*
X53543Y176575D02*
D03*
X147244Y170866D02*
D03*
X151772Y197638D02*
D03*
X147244Y181496D02*
D03*
X151575Y187008D02*
D03*
X146850Y192126D02*
D03*
X134646Y146457D02*
D03*
Y157087D02*
D03*
X151969Y176378D02*
D03*
X245669Y171063D02*
D03*
X250197Y197835D02*
D03*
X245669Y181693D02*
D03*
X250000Y187205D02*
D03*
X245276Y192323D02*
D03*
X233071Y146654D02*
D03*
Y157284D02*
D03*
X250394Y176575D02*
D03*
X344094Y170866D02*
D03*
X348622Y197638D02*
D03*
X344094Y181496D02*
D03*
X348425Y187008D02*
D03*
X343701Y192126D02*
D03*
X331496Y146457D02*
D03*
Y157087D02*
D03*
X348819Y176378D02*
D03*
X442520Y171063D02*
D03*
X447047Y197835D02*
D03*
X442520Y181693D02*
D03*
X446850Y187205D02*
D03*
X442126Y192323D02*
D03*
X429921Y146654D02*
D03*
Y157284D02*
D03*
X447244Y176575D02*
D03*
X540945Y170866D02*
D03*
X545472Y197638D02*
D03*
X540945Y181496D02*
D03*
X545276Y187008D02*
D03*
X540551Y192126D02*
D03*
X528346Y146457D02*
D03*
Y157087D02*
D03*
X545669Y176378D02*
D03*
X639370Y171063D02*
D03*
X643898Y197835D02*
D03*
X639370Y181693D02*
D03*
X643701Y187205D02*
D03*
X638976Y192323D02*
D03*
X626772Y146654D02*
D03*
Y157284D02*
D03*
X644095Y176575D02*
D03*
X598819Y183071D02*
D03*
Y174409D02*
D03*
Y165748D02*
D03*
X605118Y160630D02*
D03*
X598819Y191339D02*
D03*
Y199606D02*
D03*
X611811Y207283D02*
D03*
X622047D02*
D03*
X609055Y200000D02*
D03*
X598819Y207283D02*
D03*
X635630D02*
D03*
X8268Y183071D02*
D03*
Y174409D02*
D03*
Y165748D02*
D03*
X14567Y160630D02*
D03*
X8268Y191339D02*
D03*
Y199606D02*
D03*
X21260Y207283D02*
D03*
X31496D02*
D03*
X18504Y200000D02*
D03*
X8268Y207283D02*
D03*
X45079D02*
D03*
X106693Y183071D02*
D03*
Y174409D02*
D03*
Y165748D02*
D03*
X112992Y160630D02*
D03*
X106693Y191339D02*
D03*
Y199606D02*
D03*
X119685Y207283D02*
D03*
X129921D02*
D03*
X116929Y200000D02*
D03*
X106693Y207283D02*
D03*
X143504D02*
D03*
X205118Y183071D02*
D03*
Y174409D02*
D03*
Y165748D02*
D03*
X211417Y160630D02*
D03*
X205118Y191339D02*
D03*
Y199606D02*
D03*
X218110Y207283D02*
D03*
X228346D02*
D03*
X215354Y200000D02*
D03*
X205118Y207283D02*
D03*
X241929D02*
D03*
X303543Y183071D02*
D03*
Y174409D02*
D03*
Y165748D02*
D03*
X309842Y160630D02*
D03*
X303543Y191339D02*
D03*
Y199606D02*
D03*
X316535Y207283D02*
D03*
X326772D02*
D03*
X313779Y200000D02*
D03*
X303543Y207283D02*
D03*
X340354D02*
D03*
X401968Y183071D02*
D03*
Y174409D02*
D03*
Y165748D02*
D03*
X408268Y160630D02*
D03*
X401968Y191339D02*
D03*
Y199606D02*
D03*
X414961Y207283D02*
D03*
X425197D02*
D03*
X412205Y200000D02*
D03*
X401968Y207283D02*
D03*
X438779D02*
D03*
X500394Y183071D02*
D03*
Y174409D02*
D03*
Y165748D02*
D03*
X506693Y160630D02*
D03*
X500394Y191339D02*
D03*
Y199606D02*
D03*
X513386Y207283D02*
D03*
X523622D02*
D03*
X510630Y200000D02*
D03*
X500394Y207283D02*
D03*
X537205D02*
D03*
X72047Y169488D02*
D03*
X94291Y147441D02*
D03*
X53937Y163189D02*
D03*
X54331Y146654D02*
D03*
X94291Y159252D02*
D03*
Y170276D02*
D03*
X65748Y163189D02*
D03*
X72441Y147441D02*
D03*
Y158858D02*
D03*
X61319Y169587D02*
D03*
X170472Y169291D02*
D03*
X192717Y147244D02*
D03*
X152362Y162992D02*
D03*
X152756Y146457D02*
D03*
X192717Y159055D02*
D03*
Y170079D02*
D03*
X164173Y162992D02*
D03*
X170866Y147244D02*
D03*
Y158661D02*
D03*
X159744Y169390D02*
D03*
X268898Y169488D02*
D03*
X291142Y147441D02*
D03*
X250787Y163189D02*
D03*
X251181Y146654D02*
D03*
X291142Y159252D02*
D03*
Y170276D02*
D03*
X262598Y163189D02*
D03*
X269291Y147441D02*
D03*
Y158858D02*
D03*
X258169Y169587D02*
D03*
X465748Y169488D02*
D03*
X487992Y147441D02*
D03*
X447638Y163189D02*
D03*
X448032Y146654D02*
D03*
X487992Y159252D02*
D03*
Y170276D02*
D03*
X459449Y163189D02*
D03*
X466142Y147441D02*
D03*
Y158858D02*
D03*
X455020Y169587D02*
D03*
X564173Y169291D02*
D03*
X586417Y147244D02*
D03*
X546063Y162992D02*
D03*
X546457Y146457D02*
D03*
X586417Y159055D02*
D03*
Y170079D02*
D03*
X557874Y162992D02*
D03*
X564567Y147244D02*
D03*
Y158661D02*
D03*
X553445Y169390D02*
D03*
X662598Y169488D02*
D03*
X684843Y147441D02*
D03*
X644488Y163189D02*
D03*
X644882Y146654D02*
D03*
X684843Y159252D02*
D03*
Y170276D02*
D03*
X656299Y163189D02*
D03*
X662992Y147441D02*
D03*
Y158858D02*
D03*
X651870Y169587D02*
D03*
X464567Y179528D02*
D03*
X464370Y207283D02*
D03*
X487992Y179331D02*
D03*
X487795Y191142D02*
D03*
X450984Y207677D02*
D03*
X474606Y207283D02*
D03*
X487992D02*
D03*
X464567Y191142D02*
D03*
X70866D02*
D03*
X94291Y207283D02*
D03*
X80905D02*
D03*
X57284Y207677D02*
D03*
X94095Y191142D02*
D03*
X94291Y179331D02*
D03*
X70669Y207283D02*
D03*
X70866Y179528D02*
D03*
X169291Y191142D02*
D03*
X192717Y207283D02*
D03*
X179331D02*
D03*
X155709Y207677D02*
D03*
X192520Y191142D02*
D03*
X192717Y179331D02*
D03*
X169095Y207283D02*
D03*
X169291Y179528D02*
D03*
X267717Y191142D02*
D03*
X291142Y207283D02*
D03*
X277756D02*
D03*
X254134Y207677D02*
D03*
X290945Y191142D02*
D03*
X291142Y179331D02*
D03*
X267520Y207283D02*
D03*
X267717Y179528D02*
D03*
X366142Y191142D02*
D03*
X389567Y207283D02*
D03*
X376181D02*
D03*
X352559Y207677D02*
D03*
X389370Y191142D02*
D03*
X389567Y179331D02*
D03*
X365945Y207283D02*
D03*
X366142Y179528D02*
D03*
X562992Y191142D02*
D03*
X586417Y207283D02*
D03*
X573032D02*
D03*
X549409Y207677D02*
D03*
X586221Y191142D02*
D03*
X586417Y179331D02*
D03*
X562795Y207283D02*
D03*
X562992Y179528D02*
D03*
X661024Y191142D02*
D03*
X684449Y207283D02*
D03*
X671063D02*
D03*
X647441Y207677D02*
D03*
X684252Y191142D02*
D03*
X684449Y179331D02*
D03*
X660827Y207283D02*
D03*
X661024Y179528D02*
D03*
X750295Y169390D02*
D03*
X761417Y158661D02*
D03*
Y147244D02*
D03*
X154724Y109449D02*
D03*
X145276Y38976D02*
D03*
X129134D02*
D03*
X145276Y25591D02*
D03*
X122441Y17323D02*
D03*
X733858Y102362D02*
D03*
X50787Y111024D02*
D03*
X48031Y13386D02*
D03*
Y35039D02*
D03*
X33858Y17323D02*
D03*
Y81890D02*
D03*
Y48819D02*
D03*
X47638Y61024D02*
D03*
X76772Y40157D02*
D03*
X71653Y69685D02*
D03*
X188189Y15354D02*
D03*
X196457D02*
D03*
X184252Y22441D02*
D03*
X216929Y47244D02*
D03*
X190551D02*
D03*
X216929Y59842D02*
D03*
X204331D02*
D03*
X190551D02*
D03*
X754724Y162992D02*
D03*
X783268Y170079D02*
D03*
Y159055D02*
D03*
X743307Y146457D02*
D03*
X742913Y162992D02*
D03*
X783268Y147244D02*
D03*
X761024Y169291D02*
D03*
X759842Y179528D02*
D03*
X759646Y207283D02*
D03*
X783268Y179331D02*
D03*
X783071Y191142D02*
D03*
X746260Y207677D02*
D03*
X769882Y207283D02*
D03*
X783268D02*
D03*
X759842Y191142D02*
D03*
X742520Y176378D02*
D03*
X725197Y157087D02*
D03*
Y146457D02*
D03*
X737402Y192126D02*
D03*
X742126Y187008D02*
D03*
X737795Y181496D02*
D03*
X742323Y197638D02*
D03*
X737795Y170866D02*
D03*
X734055Y207283D02*
D03*
X697244D02*
D03*
X707480Y200000D02*
D03*
X720472Y207283D02*
D03*
X710236D02*
D03*
X697244Y199606D02*
D03*
Y191339D02*
D03*
X703543Y160630D02*
D03*
X697244Y165748D02*
D03*
Y174409D02*
D03*
Y183071D02*
D03*
X675984Y113386D02*
D03*
X681496D02*
D03*
X484646D02*
D03*
X479134D02*
D03*
X214961Y38583D02*
D03*
X205906D02*
D03*
X223622Y52756D02*
D03*
X229921D02*
D03*
X733858Y109449D02*
D03*
X381102D02*
D03*
X387008D02*
D03*
X583071D02*
D03*
X577756D02*
D03*
X548032D02*
D03*
X351181D02*
D03*
X287795Y113386D02*
D03*
X282677D02*
D03*
X90945Y109449D02*
D03*
X85728Y109350D02*
D03*
X190064Y109542D02*
D03*
X184025D02*
D03*
X154724Y102362D02*
D03*
X775984Y119685D02*
D03*
X783071D02*
D03*
X548032Y102362D02*
D03*
X351181Y102362D02*
D03*
D101*
X406946Y96561D02*
D03*
X18898Y138583D02*
D03*
X68110Y91339D02*
D03*
X14961Y114961D02*
D03*
X27165Y122835D02*
D03*
X501575Y39419D02*
D03*
X527956Y34249D02*
D03*
X499213Y34252D02*
D03*
X472835Y39370D02*
D03*
X270079D02*
D03*
X244882D02*
D03*
X332677Y34117D02*
D03*
X240551Y59055D02*
D03*
X235827D02*
D03*
X690945Y124409D02*
D03*
X696850D02*
D03*
X723622D02*
D03*
X696850Y138583D02*
D03*
X707874D02*
D03*
X703937Y124409D02*
D03*
X713386D02*
D03*
X615059Y124508D02*
D03*
X591043Y120571D02*
D03*
X605610Y124508D02*
D03*
X609547Y138681D02*
D03*
X598524D02*
D03*
X625295Y124508D02*
D03*
X598524D02*
D03*
X334449Y115748D02*
D03*
X516536Y124409D02*
D03*
X507087D02*
D03*
X511024Y138583D02*
D03*
X500000D02*
D03*
X526772Y124409D02*
D03*
X500000D02*
D03*
X494095D02*
D03*
X401673Y124508D02*
D03*
X428445D02*
D03*
X401673Y138681D02*
D03*
X412697D02*
D03*
X408760Y124508D02*
D03*
X394193Y120571D02*
D03*
X418209Y124508D02*
D03*
X297244Y124409D02*
D03*
X303150D02*
D03*
X329921D02*
D03*
X303150Y138583D02*
D03*
X314173D02*
D03*
X310236Y124409D02*
D03*
X319685D02*
D03*
X204626Y124508D02*
D03*
X231398D02*
D03*
X204626Y138681D02*
D03*
X215650D02*
D03*
X211713Y124508D02*
D03*
X197146Y120571D02*
D03*
X221162Y124508D02*
D03*
X247638Y33858D02*
D03*
X258661Y96063D02*
D03*
X284916Y33981D02*
D03*
X259793Y33907D02*
D03*
X122835Y124409D02*
D03*
X98819Y120472D02*
D03*
X728150Y115748D02*
D03*
X683071Y101181D02*
D03*
X629724Y115748D02*
D03*
X488189Y101181D02*
D03*
X531299Y115748D02*
D03*
X432874D02*
D03*
X290871Y101575D02*
D03*
X111417Y102362D02*
D03*
X236024Y115748D02*
D03*
X113386Y124409D02*
D03*
X117323Y138583D02*
D03*
X106299D02*
D03*
X133071Y124409D02*
D03*
X106299D02*
D03*
X137722Y115748D02*
D03*
X62205Y100000D02*
D03*
X604331Y90945D02*
D03*
X25984Y107480D02*
D03*
D102*
X533071Y71653D02*
D03*
X528740Y66929D02*
D03*
X490158D02*
D03*
X504724D02*
D03*
X519685D02*
D03*
X288583Y44882D02*
D03*
X263386D02*
D03*
X362992Y24803D02*
D03*
X433071Y24016D02*
D03*
X407480Y29528D02*
D03*
X396850D02*
D03*
X507874Y51968D02*
D03*
X478346D02*
D03*
X490158Y51181D02*
D03*
X519685D02*
D03*
M02*
