M48
;Layer_Color=9474304
;FILE_FORMAT=2:4
INCH,TZ
;TYPE=PLATED
T1F00S00C0.0118
T2F00S00C0.0157
T3F00S00C0.0197
T4F00S00C0.0315
T5F00S00C0.0354
T6F00S00C0.0360
T7F00S00C0.0394
T8F00S00C0.0402
T9F00S00C0.0433
T10F00S00C0.0512
T11F00S00C0.0669
T12F00S00C0.1181
;TYPE=NON_PLATED
T13F00S00C0.1181
%
T01
X1496Y11496
X2598Y10748
X2717Y12283
X1890Y13858
X6220Y10000
X6811Y9134
X11142Y10236
X11339Y12441
X10630
X9882Y12047
X10630Y13858
X11732
X12283Y12441
X13307
X13772Y11575
X19715Y12057
X20463Y12451
Y13868
X21565
X21171Y12451
X22116
X23140
X23602Y11575
X25866Y9606
X29087Y10157
X29724Y12441
X30315
X31024
X31969
X32992
X33445Y11575
X31417Y13858
X30315
X28492Y3398
X27008Y3937
X25979Y3391
X24764Y3386
X24488Y3937
X24055Y5906
X23583
X33268Y3412
X40695Y9656
X40876Y12451
X40167
X39419Y12057
X40167Y13868
X41270
X41821Y12451
X42844
X43287Y11575
X49409Y12441
X50000
X50709
X51654
X51102Y13858
X50000
X48819Y10118
X50157Y3942
X49921Y3425
X47283Y3937
X52796Y3425
X53130Y11575
X52677Y12441
X59104Y12057
X59852Y12451
X60561
X61506
X62530
X62972Y11575
X60955Y13868
X59852
X60433Y9094
X68307Y10118
X69094Y12441
X69685
X70394
X71339
X72362
X72815Y11575
X70787Y13858
X69685
T02
X26339Y4488
X28858
X36299Y2480
X39685Y2953
X40748
X43307Y2402
X47835Y5197
X49016Y5118
Y6693
X50472
X51968
Y5118
X50787Y5197
X52874Y6693
X53307Y7165
T03
X3386Y1732
X4803Y1339
Y3504
X4764Y6102
X3386Y4882
Y8189
X5079Y11102
X5433Y14665
X3622
Y15728
X7244Y14744
X9429Y14744
X13465Y14646
Y15709
X15276Y14646
X17087Y14724
X19272Y14724
X19006Y10954
X18402
X15472Y10945
Y10236
X9094Y10945
X8573Y10935
X7165Y6969
X7677Y4016
X12913Y3898
X14528
Y2559
X12244Y1732
X18425Y2244
X18819Y1535
X19646
X20591Y3858
X20433Y5984
X19055
Y4724
X21693
X21496Y3858
X22362Y5276
X22992
X21693Y5984
X23307Y14665
Y15728
X25118Y14665
X26929Y14744
X29114Y14744
X28780Y11339
X28268
X35118Y10945
X35118Y10236
X33150Y14646
Y15709
X38110Y10945
X38701
X42992Y14665
Y15728
X44803Y14665
X46614Y14744
X48799Y14744
X48465Y11339
X47913
X54803Y10945
X54803Y10236
X57776Y10945
X58307
X58642Y14724
X56457Y14724
X54646Y14646
X52835
Y15709
X62677Y15728
Y14665
X64488
X66299Y14744
X67598Y11339
X68150
X68484Y14744
X72520Y14646
Y15709
X74331Y14646
X76142Y14724
X78327Y14724
X78307Y11968
X77598
X73386Y10945
Y10236
X74291Y16299
X75472
X75030Y16939
X76102Y16929
X76142Y15866
X78327Y15906
Y17008
X78327Y17933
X78307Y19114
X78327Y20728
X76988
X75965
X74626Y20768
X73406Y20728
X72047
X71024
X70748Y20000
X69724Y19961
X69724Y20728
X68445
X68425Y19114
X68445Y17933
X68484Y17028
Y15925
X69724Y16575
Y17441
Y18307
Y19134
X70354Y16063
X73780Y17087
X74252Y17638
X73780Y18150
X74213Y18701
X73740Y19213
X74232Y19764
X75984Y19114
X75984Y17953
X76457Y23228
X78307
X74606Y23268
X73386Y23228
X71535
X69685Y23268
X68425Y23228
X66575
X64724Y23268
X63543Y23228
X61693
X59843Y23268
X58622Y23228
X56772
X54921Y23268
X53701Y23228
X53720Y20728
X54941Y20768
X56280Y20728
X57303
X58642
X59882
X59882Y19961
Y19134
Y18307
Y17441
Y16575
X60512Y16063
X58642Y15906
Y17008
X58642Y17933
X58622Y19114
X56299
X56299Y17953
X56417Y16929
X55344Y16939
X55787Y16299
X56457Y15866
X54606Y16299
X54094Y17087
X54567Y17638
X54094Y18150
X54528Y18701
X54055Y19213
X54547Y19764
X52362Y20728
X61181
X60906Y20000
X62205Y20728
X63563
X64744Y20768
X64390Y19783
X63898Y19232
X64370Y18720
X63937Y18169
X64409Y17657
X63937Y17106
X64449Y16319
X65630
X65187Y16959
X66260Y16949
X66299Y15886
X66102Y17953
X66102Y19114
X66083Y20728
X67106
X51339
X51063Y20000
X50039Y19961
X50039Y20728
X48799
X47461
X46437
X45098Y20768
X43878Y20728
X42520
X41496
X41220Y20000
X40197Y19961
X40197Y20728
X38957
X37618
X38937Y19114
X38957Y17933
X40197Y18307
Y19134
Y17441
Y16575
X40827Y16063
X44764Y16319
X45945
X45502Y16959
X46575Y16949
X46614Y15886
X46457Y17953
X46457Y19114
X44685Y18720
X44252Y18169
X44724Y17657
X44252Y17106
X44213Y19232
X44705Y19783
X45079Y23268
X43858Y23228
X42008
X40157Y23268
X38937Y23228
X37087
X46929
X48780
X50000Y23268
X51850Y23228
X50039Y19134
Y18307
Y17441
Y16575
X50669Y16063
X48799Y15925
Y17028
X48799Y17933
X48780Y19114
X36614
X36614Y17953
X34882Y17638
X34409Y18150
X34843Y18701
X34370Y19213
X34862Y19764
X35256Y20768
X34035Y20728
X32677
X31654
X31378Y20000
X30354Y19961
X30354Y20728
X29114
X27776
X26752
X25413Y20768
X24193Y20728
X22835
X21811
X21535Y20000
X25020Y19783
X24528Y19232
X25000Y18720
X24567Y18169
X25039Y17657
X24567Y17106
X25079Y16319
X26260
X25817Y16959
X26890Y16949
X26929Y15886
X26772Y17953
X26772Y19114
X29094
X29114Y17933
X29114Y17028
Y15925
X30354Y16575
Y17441
Y18307
Y19134
X30984Y16063
X34409Y17087
X36594Y20728
X35236Y23268
X34016Y23228
X32165
X30315Y23268
X29094Y23228
X27244
X25394Y23268
X24173Y23228
X22323
X21142Y16063
X20512Y16575
Y17441
Y18307
Y19134
Y19961
X20512Y20728
X19272
X17933
X16909
X15571Y20768
X14350Y20728
X12992
X11969
X11693Y20000
X10669Y19961
X10669Y20728
X9429
X8091
X7067
X5728Y20768
X5709Y23268
X7559Y23228
X9409
X10630Y23268
X12480Y23228
X14331
X15551Y23268
X17402Y23228
X19252
X20472Y23268
X19252Y19114
X19272Y17933
X19272Y17008
Y15906
X17087Y15866
X17047Y16929
X15974Y16939
X16417Y16299
X15236
X14724Y17087
X15197Y17638
X14724Y18150
X15157Y18701
X14685Y19213
X15177Y19764
X16929Y19114
X16929Y17953
X10669Y18307
Y19134
X9409Y19114
X9429Y17933
X9429Y17028
Y15925
X10669Y16575
Y17441
X11299Y16063
X7244Y15886
X7205Y16949
X6132Y16959
X6575Y16319
X7087Y17953
X7087Y19114
X5315Y18720
X4882Y18169
X5354Y17657
X4882Y17106
X5394Y16319
X4843Y19232
X5335Y19783
X4508Y20728
X3150
X2126
X1850Y20000
X827Y19961
X827Y20728
X827Y19134
Y18307
Y17441
Y16575
X1457Y16063
X787Y23268
X2638Y23228
X4488
T04
X4862Y7795
X6240
X68937Y6496
Y5118
X68976Y2520
Y1142
T05
X71378Y1919
Y6506
T06
X8756Y1240
Y2240
Y3240
Y4240
Y5240
Y6240
X16756
Y5240
Y4240
Y3240
Y2240
Y1240
X55850Y957
Y1957
Y5157
Y6157
X63150
Y5157
Y1957
Y957
T07
X4118Y15236
X5118
X6118
X13961Y15217
X14961
X15961
X23803Y15236
X24803
X25803
X33646Y15217
X34646
X35646
X43488Y15236
X44488
X45488
X53331Y15217
X54331
X55331
X63173Y15236
X64173
X65173
X73016Y15217
X74016
X75016
T08
X29244Y1409
X30244
X31244
X32244
X33244
X34244
X35244
X36244
X36252Y7402
X35252
X34252
X33252
X32252
X31252
X30252
X29252
X37252
X38252
X39252
X40252
X41252
X42252
X43252
X44252
X45252
X46252
X47252
X48252
X48244Y1409
X47244
X46244
X45244
X44244
X43244
X42244
X41244
X40244
X39244
X38244
X37244
T09
X23882Y2205
X24882
X25882
X26882
T10
X73386Y1476
X75354
T11
X8366Y15177
X18209
X28051
X37894
X47736
X57579
X67421
X65748Y6409
Y992
X77264Y15177
Y16634
Y18406
Y19862
X67421
Y18406
Y16634
X57579
Y18406
Y19862
X47736
Y18406
Y16634
X37894
Y18406
Y19862
X28051
Y18406
Y16634
X18209
Y18406
Y19862
X8366
Y18406
Y16634
T12
X70453Y22008
X72618
X75374
X77579
X67736Y22008
X65492Y22008
X62815
X60610
X57894
X55689
X52933
X50768
X48051
X45846
X43130
X40925
X38209
X36004
X33248
X31083
X28366
X26161
X23445
X21240
X18524
X16319
X13563
X11398
X8681
X6476
X3760
X1555
T13
X1181Y1181
Y7323
X1476Y15000
X5098Y12835
X11319Y14980
X14941Y12835
X21161Y15000
X24783Y12854
X31004Y14980
X34626Y12835
X40846Y15000
X44468Y12854
X50689Y14980
X54311Y12835
X60532Y15000
X64154Y12854
X70374Y14980
X73996Y12835
X77953Y7323
Y1181
M30
